<?xml version="1.0" encoding="utf-8"?>
<!-- Generator: Adobe Illustrator 25.4.1, SVG Export Plug-In . SVG Version: 6.00 Build 0)  -->
<svg version="1.1" id="Capa_1" xmlns="http://www.w3.org/2000/svg" xmlns:xlink="http://www.w3.org/1999/xlink" x="0px" y="0px"
	 width="250px" height="50px" viewBox="0 0 250 50" style="enable-background:new 0 0 250 50;" xml:space="preserve">
<style type="text/css">
	.st0{fill:#FFFFFF;}
	.st1{fill:#666666;stroke:#FFFFFF;stroke-width:0.2835;stroke-miterlimit:10;}
</style>
<g>
	<path class="st0" d="M89,35.4l3.6,8.1h3.5c-0.2-0.6-0.3-1.2-0.3-1.8c0-3.2,2.6-5.9,5.9-5.9c3.2,0,5.9,2.6,5.9,5.9
		c0,0.6-0.1,1.2-0.3,1.7l26.8-0.1l0.5-0.1c-0.1-0.3-0.1-0.6-0.1-1c0-2.9,2.4-5.2,5.2-5.2s5.2,2.4,5.2,5.2c0,0.3,0,0.5-0.1,0.8h2.9
		l0.4-9.4l5.3-4.3l4-7.2l-5.1-4l-0.5-3.4l-8.5-7l-5.7-1.5l-2.6,0.3l-0.9-2.8l-5.7,0.8L124.6,6l-1.3-1.9l-8.2,2.4l-7.6,10.6
		c-0.1,0-16.1,1.5-16.1,1.5l4.1,9.1L89,35.4z"/>
	<circle cx="139.8" cy="42.5" r="5"/>
	<circle class="st0" cx="139.8" cy="42.5" r="1.3"/>
	<circle cx="101.7" cy="42.5" r="5"/>
	<circle class="st0" cx="101.7" cy="42.5" r="1.3"/>
	<g>
		<path d="M116.8,8.5c0,0.2,0.3,0.2,0.4,0.1c0.1-0.1,0.5-0.5,0.7-0.6c-0.1,0.1,0,0,0,0c0.4-0.2,0.8-0.4,1.3-0.6h-0.1
			c0.5-0.1,1-0.3,1.5-0.3c0.3,0,0.2-0.5-0.1-0.4c-0.8,0.1-1.7,0.3-2.5,0.8C117.7,7.6,116.8,8,116.8,8.5z"/>
		<path d="M113.1,43.8h0.6H113.1z"/>
		<path d="M107.4,43.4c-0.1,0.2-0.1,0.2-0.2,0.4c5,0.4,22.1,0,27.4-0.1c-0.1-0.3-0.1-0.6-0.1-0.9c-4.2,0.5-23,0.1-27,0.3
			c0-0.1,0,0,0,0L107.4,43.4z"/>
		<path d="M88.7,35.2c0.9,2.2,2.9,6.5,3.8,8.6h3.8c-0.1-0.3-0.1-0.6-0.2-0.8H93c-0.8-1.9-2.6-5.7-3.3-7.6l6.5-7.6L92,19.1l15.9-1.7
			l4.1-5.7c0.1,1.5,0.8,3.1,2,4.2c-1.3,0.3-2.4,1.2-3,2.5l-3.8,0.3l3,18.1l7.5,5l7-0.3l-0.7-2.8c2.9,2.2,6.9,3.6,10.6,2.7
			c0.1-0.8,0.4-1.6,0.9-2.3c-3.3,1.7-7.2,0.5-10.3-1.1c1.3,0.1,2.5-0.1,3.7-0.4c0.8,0.6,1.7,1,2.7,1.1c1,0.2,2.2,0.1,3.2-0.1
			c0.1,0,0.1-0.1,0-0.1c-1,0-2-0.3-2.9-0.8c-0.2-0.1-0.4-0.3-0.6-0.4c-0.4-0.3-0.6-0.6-0.9-0.8c2.7,0.9,5.6,0.7,8.1-0.3
			c-0.1,0.4-0.4,0.8-0.7,1.2c0.7-0.3,1.6-0.5,2.4-0.4c0.1-0.3,0.2-0.6,0.3-0.8c2,0.4,4.1,0.1,6-0.6c-0.6,1.3-1.5,2.4-2.8,3.1
			c0.4,0.5,0.8,1,1,1.5c1.2-0.7,2.2-1.7,3-2.8l-0.1,2.5h-1.3l-0.1,2.5h1.3v0.4h-2.4c0,0.3-0.1,0.6-0.1,0.8h3.3l0.1-1.3l3.1,0.1
			c0.7,0,1.3-0.6,1.3-1.3c0-0.6-0.6-1.3-1.3-1.3l-3.1-0.1l0.1-4.2c0.2-0.5,0.5-1.1,0.4-1.6c1.2-0.8,2.2-2,3-3.2
			c3.3-1.1,5.1-4.5,6.3-7.5c1-2.9-2.6-4.5-4.7-5.5c0.3-0.9,0-1.8-0.4-2.7c-1.5-3.1-4.4-5.2-7.5-6.6c1-1.9-4.2-2.9-5.4-3.1
			c-1.5-0.1-2.9-0.2-4.3,0c0.1-0.8,0.6-2.3-0.6-2.7c-3.5-0.5-7.2,0.1-10.2,2c0.2-0.8-0.1-1.5-1-1.5c-4.7-0.2-10.6,1.6-11.9,6.7
			l-4.7,6.6l-16.7,1.7l4.4,9.2L88.7,35.2z M133.9,4.8c-0.3,4.7-3.8,8.7-8.2,9.9c-0.4,0.2-0.8,0.1-1.3,0c1.5-0.3,2.7-1.1,3.8-2
			c1.1-0.9,2.2-1.8,3.2-2.9c0.5-0.6,0.9-1.1,1.3-1.7c0.2-0.2-0.2-0.4-0.3-0.2c-0.3,0.4-0.6,0.8-0.8,1.1c-1.3,1.5-2.9,2.8-4.4,4
			c0.1-0.1,0.1-0.1,0.1-0.1c-0.6,0.3-1.2,0.7-1.8,1c-0.4,0.1-0.8,0.3-1.3,0.3c-0.1,0.1-0.2,0.2-0.1,0.3c-0.8-0.1-1.6-0.1-2.4-0.1
			c2.7-2.8,5.9-5.6,9.1-7.3c-2.4,0.8-5,1.6-7.1,3c0.4-1,0.8-2,1-2.9c1.5-0.8,2.9-1.7,4.5-2.2C130.8,4.8,132.4,4.6,133.9,4.8z
			 M130.2,20.7c-2.4-1.5-5.4-2.3-8.3-1.7c-1-0.8-2.2-1.6-3.5-2.2c5-1.5,10.7,0,14.3,3.8c0.2,0.3-0.2,0.7-0.5,1
			c-2.9,2.8-6.9,3.9-10.8,4c0.8-0.4,1.5-0.9,2.4-1.3c0.4-0.2,0.9-0.4,1.3-0.7c0.3-0.3,0.6-1,0.1-1.4c-0.6-0.5-1-1.2-1.7-1.7
			c2.1-0.4,4.4-0.5,6.4,0.3C130.2,21,130.2,20.9,130.2,20.7z M142.4,22.4c-2.4-1.1-5.1-2.6-7.8-1.8c-0.1-0.9-0.8-1.7-1.4-2.2
			c1.5-0.1,3.1-0.6,4.5-1.3c1.5,0.8,3.1,1.5,4.5,2.6c1,0.8,3.4,2,2.4,3.6c-1.5,2.5-4.1,4.1-6.8,5.1c-2-1.6-4.3-2.7-6.7-3.4
			c0.7-0.4,1.4-0.9,2-1.5c0.4-0.1,0.8-0.3,1.3-0.6c2.5-1,5.4-1,8-0.2C142.6,22.6,142.6,22.4,142.4,22.4z M128.1,15.4L128.1,15.4
			L128.1,15.4C128.2,15.4,128.1,15.4,128.1,15.4z M143.4,8.7c-2,4.7-6.6,7.4-11.3,8.8c-0.6-0.4-1.2-0.8-1.8-1.1
			c2.7-3,6.2-5.7,10.1-6.7c0.1,0,0.1-0.3-0.1-0.3c-2.3,0.1-4.6,0.5-6.6,1.5c0.8-1.1,1.3-2.4,1.7-3.6c1.5-0.3,3-0.3,4.5,0
			C141.1,7.6,142.2,8,143.4,8.7z M150.7,18c-1.3,1-2.9,1.7-4.3,2.5c-1.5-1.7-3.5-3-5.5-4.1c2.8-0.7,5.9-0.7,8.6,0.6
			c0.1,0.1,0.3-0.1,0.1-0.2c-2.2-1.5-4.9-2.7-7.6-2.6c1.2-1.1,2.1-2.4,2.9-3.8c2.7,0.9,4.7,2.9,6.2,5.2
			C151.8,16.9,151.9,17.3,150.7,18z M148.9,24.6c1.7-0.6,3.6-1.2,5.4-1c0.1,0.1,0.1-0.1,0-0.1c-2.4-1-5.1-1.2-7.5-0.2
			c0.1-0.5,0.1-0.9,0.1-1.4c1-0.1,2-0.6,2.9-1c-0.1,0.4,0.5,0.3,0.7,0.3l0,0c0.6,0.1,1.1,0.3,1.6,0.6c0.1,0.1,0.2,0.1,0.3-0.1
			c0.3-0.6-1.9-1-2.2-1c0.5-0.3,0.9-0.5,1.3-0.8c-0.1,0.1-0.1,0.3,0.1,0.3c0.4,0.1,0.8,0.3,1.2,0.4c0.1,0.1,0.6,0.3,0.8,0.3l0,0
			c0.5,0.3,0.4,1,0.8,0.9c0.4-0.1-0.1-0.8-0.2-1c-0.6-0.6-1.7-1.1-2.5-1.1c0.2-0.1,0.3-0.2,0.6-0.3c0.8,0.3,4.3,2.2,4.2,3.1
			c-0.6,2.2-1.8,4.3-3.3,6.1c0.2-0.6,0.3-1.3,0.1-2c0.6-0.2,1.1-0.8,1.5-1.5c0.2-0.2-0.2-0.4-0.3-0.2c-0.1,0.2-0.3,0.4-0.4,0.6
			c-0.1,0.3-0.6,0.6-0.8,0.8c-0.2-0.3-0.4-0.5-0.6-0.5c0.1-0.1,0.2-0.2,0.3-0.3c-0.1,0.1-0.1,0.1-0.1,0.1c0.3-0.3,0.8-0.6,0.8-1
			c0-0.2-0.2-0.3-0.3-0.3c-0.2,0.1-0.1,0.3-0.3,0.4c0-0.1,0,0,0,0l0,0c-0.1,0.1-0.2,0.2-0.3,0.3c0.1-0.1,0.1-0.1,0.1-0.1
			c-0.2,0.1-0.6,0.3-0.6,0.6C151.2,24.9,150.1,24.7,148.9,24.6z M139.1,29.4c1.9-0.4,3.6-1.4,5.2-2.7c0.3,0.4,0.9,0.7,1.4,0.8
			c0.3,0.1,0.4-0.3,0.1-0.4c-0.2,0-0.3-0.1-0.5-0.1l0,0c-0.3-0.1-0.6-0.3-0.8-0.5l0.1-0.1c0.5,0.1,1-0.1,1.6-0.1
			c0.8,0,1.7,0.1,2.4,0.3c0.5,0.1,2.4,0.4,2.4,0.9c-1.2,4.5-5.7,7.3-10.3,7.3c0.9-0.5,1.6-1.2,0.8-2.2c2.9,0.1,5.7-1.3,7.7-3.3
			c0.1-0.1,0-0.3-0.1-0.2c-2.7,1.7-6.1,1.8-9.2,1.3C139.8,30.1,139.4,29.8,139.1,29.4z M127.2,31.1c2.6,1.3,5.5,1.7,8.4,1.5
			c0.1,0,0.1-0.1,0-0.1c-1-0.2-2.1-0.5-3.1-0.8c-2.7-1.1-5.3-2.7-7.4-4.7c1.3-0.1,2.6-0.4,3.8-0.9c4.4,0.9,8.2,3.7,10.9,7.3
			c-3.1,2.1-7,2.1-10.6,1.4C128.6,33.4,128,32.3,127.2,31.1z M120.4,34.4c-0.2-0.9-0.3-1.9-0.4-2.8c0.2,0.2,0.5,0.3,0.7,0.6
			c0.2,0.1,0.4-0.1,0.3-0.3c0.1,0.2,4.1,2.9,3.6,2c-2.5-1.7-4.2-4.3-5.5-7c0.1-0.1,0.2-0.1,0.3-0.1c0.5,0.1,1,0.3,1.5,0.6
			c-0.1,0.1-0.1,0.3,0,0.3c0.3,0.2,0.6,0.4,0.9,0.6c1,0.8,2,1.7,2.7,2.8c-0.1-0.1-0.1-0.1-0.1-0.1c0.2,0.2,0.3,0.8,0.7,0.7
			c0.1,0,0.1-0.2,0.1-0.3c-0.7-1-1.5-2-2.5-2.9c2.4,1.8,4,4.5,4.9,7.5C125.1,36.7,122.4,36,120.4,34.4z M120.4,31.6
			c-0.2-0.1-0.5-0.3-0.6-0.1c0-0.2,0-0.3-0.1-0.6C120,31.1,120.2,31.4,120.4,31.6z M119.8,37.4c0.5,0.1,0.9-0.4,0.9-0.9
			c0.5,0.3,1,0.6,1.5,0.8c0.1,0.2,0.3,0.3,0.5,0.6l0.8,2.9l-5.7,0.3l-6.8-4.6l-2.8-16.8l2.6-0.2c-0.1,0.8-0.2,1.7-0.1,2.4
			c0,1.3,0.5,2.5,1.3,3.5c-0.6,1-0.6,2.3-0.6,3.4C111.6,33.3,115.4,37.1,119.8,37.4z M118,31.4c0.2,1.3,0.3,2.7,0.6,3.9
			c-2.9-0.8-5.1-3.4-5.3-6.4c0.6,1,1.3,2,2.1,2.8c0.1,0.1,1.7,1.8,1.5,1.1c-0.6-0.8-1.2-1.6-1.5-2.5c0.1,0.1,0.2,0.3,0.3,0.5
			c0.1,0.3,0.6,0.1,0.4-0.2c-0.2-0.4-0.4-0.8-0.6-1.2c-0.1-0.1-0.3-0.1-0.3-0.1c-0.2-0.7-0.3-1.4-0.5-2.1c0.5,0.2,1,0.3,1.6,0.3
			c0.8,0.7,1.3,1.6,1.5,2.6c-0.3-0.8-0.8-1.5-1.3-2.1c-0.2-0.2-0.6,0.1-0.3,0.3c0.5,0.6,0.9,1.2,1.2,1.9c0.2,0.4,0.3,0.8,0.3,1.3
			c0.1,0.2,0.3,0.2,0.4,0.1C118,31.5,118,31.4,118,31.4z M116,17.7c-0.3,0-1.3-0.1-0.9,0.4c0.4,0.1,0.8-0.1,1.3,0.1h-0.1
			c0.5,0.1,0.9,0.2,1.3,0.4l0,0c0.5,0.3,1,0.6,1.4,0.8c0.6,0.4,1.1,0.8,1.7,1.2c0.1,0.1,0.2,0,0.3-0.1c0.1-0.1,0-0.2-0.1-0.3
			c-0.7-0.5-1.4-1-2.2-1.5c1.7,1,3.3,2.2,4.5,3.8c-2.4,1.1-4.6,3.3-7.4,3.1c-1.3-0.1-2.3-0.8-3-1.9c-0.1-0.4-0.1-1-0.1-1.4
			c2.3,1.4,5.3,1.3,7.7,0.3c0.1,0,0.1-0.1-0.1-0.1c-2.9,0.6-5.7-0.8-7.7-2.7c0.1-0.1,0.1-0.3,0.1-0.4C113.4,18,114.7,17.5,116,17.7z
			 M115.2,9.5c-0.6,0.6-1.2,1.3-1.5,2.2c0.4-4.5,5.4-6.3,9.3-6.2c-0.4,3.6-3.1,8.4-6.8,9.2c1.7-1,3.2-2.5,4.3-4.3
			c0.3-0.4,0.6-0.8,0.8-1.3c0.1-0.2,0-0.4-0.2-0.3c-0.1,0-0.1,0.1-0.2,0.2c-0.4,0.8-1,1.6-1.5,2.3l0,0c-0.8,0.9-1.6,1.7-2.6,2.4
			c0.1-0.1,0.1-0.1,0.1-0.1c-0.2,0.1-0.4,0.3-0.6,0.4c0.1-2.4,2-4.5,3.8-5.9c0.2-0.1,0-0.3-0.1-0.3c-2.5,1.1-5.4,2.5-5.7,5.7
			c-0.1-0.3-0.2-0.7-0.3-1.1c0.1-0.1,0.1-0.1,0.1-0.2c0.4-1,1-1.8,1.7-2.5C115.8,9.6,115.5,9.2,115.2,9.5z"/>
		<path d="M95,41.9h0.8c0.1-7.7,11.4-7.8,11.7-0.1h0.8c0-3.7-3.1-6.6-6.8-6.6C98,35.1,94.8,38.3,95,41.9z"/>
		<polygon points="101.1,26.5 104.3,19.4 93.6,20.5 96.7,27.1 		"/>
		<polygon points="102,26.5 107.6,25.9 106.3,19.7 105,19.8 		"/>
		<polygon points="96.4,28 90.2,35.2 100.9,27.3 		"/>
		<path d="M92.1,36.2l-1.4-0.1l2,5l0.8-0.8C95,38.9,94.2,36.4,92.1,36.2z"/>
		<path d="M108,29.2c-0.1,0-7.7,0.3-7.7,0.3c-0.1,0-0.3,0.1-0.3,0.3c0,0.1,0.1,0.3,0.3,0.3c0.3,0,7.6-0.3,7.8-0.3
			C108.4,29.7,108.4,29.2,108,29.2z"/>
		<path d="M108.3,30.5c-0.1,0-10,0.6-10.1,0.6s-0.3,0.1-0.3,0.3c0,0.1,0.1,0.3,0.3,0.3c0.2,0,10-0.6,10.2-0.6
			C108.7,31,108.6,30.5,108.3,30.5z"/>
		<path d="M108.6,31.8c-0.1,0-12.4,0.6-12.5,0.6s-0.3,0.1-0.3,0.3c0,0.1,0.1,0.3,0.3,0.3c0.6,0,12.4-0.6,12.6-0.6
			C108.9,32.3,108.9,31.8,108.6,31.8z"/>
		<path d="M108.8,33.2c-0.1,0-15,0.8-15.1,0.8v0.6c0.7-0.1,15-0.8,15.2-0.8C109.2,33.7,109.1,33.2,108.8,33.2z"/>
		<path d="M112.6,38.8c-1.5,0-4.3,0-4.3,0c-0.1,0-0.3,0.1-0.3,0.3c0,0.1,0.1,0.3,0.3,0.3c0.1,0,3.9,0,4.4,0
			C113,39.3,112.9,38.9,112.6,38.8z"/>
		<path d="M113.7,39.8c-1.7,0.1-5.3-0.3-5.1,0.2c0,0.1,0.1,0.3,0.3,0.3c0.1-0.1,4.4,0,4.9,0C114,40.2,114,39.8,113.7,39.8z"/>
		<path d="M114.8,40.6c-1.9,0.1-5.7-0.3-5.5,0.2c0,0.1,0.1,0.3,0.3,0.3c0.1,0,4.7,0.1,5.3,0.1C115.1,41.1,115.1,40.6,114.8,40.6z"/>
		<path d="M116.3,41.5c0,0-6.1-0.1-6.2-0.1s-0.3,0.1-0.3,0.3c0,0.1,0.1,0.3,0.3,0.3c0.1,0,5.7,0.1,6.3,0.1
			C116.6,42,116.5,41.5,116.3,41.5z"/>
		<path d="M131.6,9L131.6,9L131.6,9L131.6,9z"/>
		<path d="M131.6,9L131.6,9L131.6,9z"/>
		<path d="M128.9,10c-0.4,0.3-0.8,0.7-1.3,1c0.1-0.1,0.1-0.1,0.1-0.1c-1,0.6-2,1.2-3,1.7c-0.1,0-0.1,0.2-0.1,0.3
			c0.1,0.3,1-0.3,1.3-0.4c1.2-0.6,2.3-1.4,3.3-2.3C129.4,10,129.2,9.7,128.9,10z"/>
		<path d="M127.6,9.8c-0.2,0.1-0.5,0.4-0.7,0.6c0.1-0.1,0.1-0.1,0.1-0.1c-0.3,0.3-0.8,0.5-1.3,0.7c-0.1,0-0.1,0.2-0.1,0.3
			c0.2,0.3,0.6-0.1,0.8-0.1c0.6-0.2,1-0.6,1.4-1C128,10,127.9,9.8,127.6,9.8z"/>
		<path d="M127.4,7.1c-1,0.3-2.1,0.6-2.9,1.3c-0.1,0.1-0.1,0.3,0,0.3c0.3,0.2,0.4-0.1,0.6-0.2c0.7-0.5,1.6-0.8,2.4-1
			C127.8,7.6,127.8,7.1,127.4,7.1z"/>
		<path d="M119.3,11.3L119.3,11.3L119.3,11.3z"/>
		<path d="M119.2,10.5c-0.3-0.3-0.6,0.3-0.8,0.4c-0.6,0.6-1.1,1-1.7,1.5c-0.1,0.1-0.1,0.4,0.1,0.4c0.3-0.1,0.5-0.3,0.7-0.5
			C117.8,12.1,119.6,10.8,119.2,10.5z"/>
		<path d="M115,10.5L115,10.5L115,10.5z"/>
		<path d="M117.7,18.6L117.7,18.6L117.7,18.6z"/>
		<path d="M117.9,19.6L117.9,19.6C117.9,19.7,117.9,19.7,117.9,19.6z"/>
		<path d="M119,19.7c-0.2-0.1-0.4-0.2-0.6-0.3c-0.8-0.4-1.7-0.7-2.6-0.8c-0.4,0-0.2,0.8,0.1,0.5c1,0.2,2,0.6,2.9,1.1
			C119,20.3,119.3,19.9,119,19.7z"/>
		<path d="M114.1,19c-0.1-0.1-0.1-0.1-0.3-0.1c-0.4,0.2,0.5,1,0.7,1.3c0.6,0.6,1.3,0.9,2,1.2c0.8,0.3,1.6,0.5,2.4,0.6
			c0.1,0,0.2-0.1,0.2-0.2c0.1-0.1-0.1-0.2-0.2-0.2l0,0c-0.9-0.1-1.9-0.3-2.7-0.8l0,0c-0.4-0.2-0.8-0.4-1.2-0.7
			C114.7,19.9,114.3,19.5,114.1,19z"/>
		<path d="M116.2,20.8L116.2,20.8L116.2,20.8z"/>
		<path d="M115.6,19.4c-0.1-0.1-0.2,0-0.3,0.1c-0.1,0.3,0.3,0.3,0.6,0.4c0.5,0.2,1,0.3,1.5,0.6c0.1,0.1,0.2,0,0.3-0.1
			c0.1-0.3-0.3-0.3-0.6-0.4C116.6,19.8,116.1,19.6,115.6,19.4z"/>
		<path d="M116.8,23.6c-0.3,0-0.7,0-1-0.1l0,0c-0.6-0.1-1.1-0.3-1.7-0.5c0.1,0,0,0,0,0c-0.3-0.1-0.6-0.3-0.8-0.4
			c-0.2-0.2-0.4,0.2-0.2,0.3c1.1,0.6,2.4,1,3.6,1C117.1,24.1,117.1,23.6,116.8,23.6z"/>
		<path d="M113.4,24c0.1,0.1,0.3,0.2,0.5,0.3c0.6,0.3,1.1,0.6,1.7,0.8c0.1,0.1,0.2,0,0.3-0.1c0.1-0.3-0.4-0.3-0.6-0.5
			c-0.6-0.2-1.1-0.5-1.7-0.8C113.3,23.5,113.1,24,113.4,24z"/>
		<path d="M127.6,18.6c0.1-0.1,0-0.3-0.1-0.3c-0.4-0.1-0.8-0.2-1.2-0.3c-1.4-0.3-2.9-0.4-4.3,0c-0.1,0.1-0.1,0.1-0.1,0.3
			c0,0.1,0.1,0.2,0.3,0.1c0.3-0.1,0.7-0.1,1.1-0.2c0.8-0.1,1.7,0,2.4,0.1l0,0c0.6,0.1,1.1,0.3,1.7,0.4
			C127.4,18.8,127.5,18.7,127.6,18.6z"/>
		<path d="M121.8,17.2c-0.3,0.1-0.2,0.5,0.1,0.4c0.5-0.1,1-0.2,1.5-0.2s1.1,0.1,1.7,0.1c0.1,0,0.1,0,0.1-0.1
			C125.9,16.6,122.1,17,121.8,17.2z"/>
		<path d="M128.2,20.7c-0.4-0.1-3.5-0.6-3.4,0.1c0.1,0.3,0.5,0.1,0.8,0.1c0.6-0.1,1.3-0.1,1.9,0.1h-0.1c0.3,0,0.5,0.1,0.7,0.1
			C128.2,21.2,128.4,20.8,128.2,20.7z"/>
		<path d="M125.4,21.8c0.4,0,0.9,0,1.3,0.1h-0.1c0.1,0,0.3,0,0.4,0.1c0.3,0.1,0.4-0.3,0.1-0.4c-0.7-0.1-1.4-0.3-2-0.1
			C125.1,21.6,125.1,21.9,125.4,21.8z"/>
		<path d="M129.9,23.1c0-0.1-0.1,0-0.1,0c-0.6,0.2-1.1,0.4-1.7,0.6l0,0H128l0,0c-1,0.3-2.1,0.8-3.2,1c-0.3,0-0.5,0-0.8,0
			c-0.1,0-0.2,0.1-0.2,0.2c0.3,1,5.3-1.2,6.1-1.5C130.1,23.3,130.1,23.1,129.9,23.1z"/>
		<path d="M125.1,23.9c-0.1,0-0.1,0.2-0.1,0.3c0.2,0.3,0.6-0.1,0.8-0.1c0.5-0.1,1-0.3,1.4-0.7c0.2-0.2-0.1-0.6-0.3-0.3
			c-0.1,0.1-0.1,0.1-0.1,0.1l0,0C126.4,23.5,125.7,23.6,125.1,23.9z"/>
		<path d="M128.6,22.5c0-0.3-0.5-0.2-0.8-0.3c-0.7,0-1.3-0.1-2-0.1c-0.1,0-0.2,0.1-0.2,0.2c0,0.4,0.5,0.2,0.8,0.3
			c0.7,0,1.3,0.1,2,0.1C128.4,22.8,128.6,22.7,128.6,22.5z"/>
		<path d="M131.2,30L131.2,30L131.2,30z"/>
		<path d="M131.2,30L131.2,30L131.2,30z"/>
		<path d="M134.7,31.5c0-0.2-0.2-0.2-0.3-0.3c-0.8-0.3-1.6-0.6-2.4-0.9c-2-0.8-3.7-2.1-5.4-3.2c-0.1-0.1-0.2,0-0.3,0.1
			c-0.1,0.2,0.1,0.3,0.3,0.4c0.5,0.3,1,0.7,1.5,1c1.9,1.3,4,2.3,6.2,3c0.1,0.1,0.2,0.1,0.3,0.1C134.6,31.6,134.7,31.6,134.7,31.5z"
			/>
		<path d="M131.2,30L131.2,30L131.2,30z"/>
		<path d="M131.6,28.8c-0.1-0.1-0.3-0.1-0.6-0.3c-0.7-0.3-1.3-0.6-1.9-1c-0.5-0.3-0.9-0.8-1.5-0.8c-0.3-0.1-0.3,0.4-0.1,0.4l0,0
			c0.1,0,0.1,0.1,0.2,0.1l0,0c1.1,0.7,2.2,1.5,3.5,2C131.4,29.2,131.8,28.9,131.6,28.8z M127.7,27L127.7,27
			C127.7,27,127.8,27,127.7,27z M130.9,28.4L130.9,28.4L130.9,28.4z"/>
		<path d="M127.9,27.1L127.9,27.1L127.9,27.1z"/>
		<path d="M129.2,26.2c-0.2-0.1-0.3,0.2-0.3,0.3c0.1,0.1,0.3,0.2,0.4,0.3l0,0c0.5,0.3,1.1,0.5,1.6,0.8l0,0c0.1,0.1,0.2,0.2,0.3,0.1
			C132.1,27.2,129.6,26.5,129.2,26.2z M130.9,27.6L130.9,27.6L130.9,27.6z"/>
		<path d="M131.1,27.7L131.1,27.7L131.1,27.7L131.1,27.7z"/>
		<path d="M122.1,28.7C122.1,28.8,122.1,28.8,122.1,28.7C122.1,28.8,122.1,28.8,122.1,28.7z"/>
		<path d="M122.1,28.7L122.1,28.7L122.1,28.7z"/>
		<path d="M121.4,29.3L121.4,29.3L121.4,29.3z"/>
		<path d="M123,30.2c-0.2-0.2-2-2.2-2-1.3c0.1,0.2,0.4,0.3,0.6,0.5c0.6,0.4,1,1,1.5,1.5c0.1,0.1,0.3,0.1,0.3,0
			C123.6,30.7,123.1,30.4,123,30.2z"/>
		<path d="M121.4,29.2C121.4,29.3,121.4,29.2,121.4,29.2S121.4,29.3,121.4,29.2z"/>
		<path d="M121.1,30c0.4,0.4,0.8,0.8,1.3,1.3c0.1,0.1,0.3,0.1,0.3,0c0.1-0.1,0.1-0.3,0-0.3c-0.4-0.4-0.8-0.8-1.3-1.3
			C121.2,29.5,120.9,29.8,121.1,30z"/>
		<path d="M116.7,30.2c-0.1-0.4-0.3-0.8-0.6-1.3c0-0.1-0.1-0.1-0.3-0.1c-0.1,0-0.1,0.1-0.1,0.3c0.1,0.4,0.3,0.8,0.6,1.3
			c0,0.1,0.2,0.1,0.3,0.1C116.7,30.4,116.7,30.3,116.7,30.2z"/>
		<path d="M125.7,36.1c0.1,0,0.2-0.1,0.2-0.2c0-0.3-0.8-0.1-1-0.3h0.1c-0.5-0.1-1-0.2-1.4-0.4l0,0c-0.6-0.3-1.2-0.6-1.7-1
			c-0.3-0.1-0.8-0.6-1-0.9c-0.2-0.2-0.6,0.1-0.3,0.3C121.8,35,123.6,36.2,125.7,36.1z"/>
		<path d="M123,33.9c-0.1-0.1-0.3-0.1-0.5-0.2c-0.2-0.1-0.5-0.3-0.6-0.3c-0.2-0.1-0.4-0.3-0.6-0.5s-0.6,0.1-0.3,0.3
			c0.5,0.4,1.1,1.1,1.8,1C123,34.1,123,34,123,33.9z"/>
		<path d="M142.4,24.3L142.4,24.3c-0.5,0.6-1.1,1.2-1.7,1.7c0.1-0.1,0.1-0.1,0.1-0.1c-0.7,0.5-1.5,0.9-2.2,1.2
			c-0.3,0.1-0.6,0.3-1,0.3c-0.1,0.1-0.1,0.1-0.1,0.3c0.1,0.6,2.7-0.8,2.9-1c1.2-0.7,2.2-1.7,3-2.8c0.1-0.1,0-0.2-0.1-0.3
			c-0.3-0.1-0.4,0.3-0.6,0.5C142.6,24.2,142.6,24.2,142.4,24.3z"/>
		<path d="M140.1,24.9c0,0-0.1,0-0.1,0.1c-0.6,0.6-1.4,0.9-2.2,1.3c-0.3,0.1-0.6,0.1-0.9,0.2c-0.2,0.1-0.2,0.3-0.1,0.4
			c1,0,2-0.7,2.9-1.2C139.9,25.5,140.7,25.1,140.1,24.9z"/>
		<path d="M137.9,24.8c0.2-0.2-0.1-0.6-0.3-0.3c-0.8,0.6-2,0.5-3,0.3h0.1c-0.2,0-0.5-0.1-0.7-0.1c-0.1,0-0.2,0.1-0.2,0.2
			c0,0.3,0.4,0.2,0.6,0.3l0,0c1,0.2,2,0.2,3-0.1C137.7,25.1,137.9,24.9,137.9,24.8z"/>
		<path d="M137.6,22.8c-0.1-0.1-0.3,0-0.4,0c-0.7,0.1-1.4,0-2.1,0.2c-0.2,0.1-0.2,0.3-0.1,0.4c0.2,0.1,0.5-0.1,0.7-0.1h-0.1
			c0.6,0,1.2,0,1.8-0.1C137.7,23.3,137.7,23.1,137.6,22.8z"/>
		<path d="M140.2,18.7c-0.7-0.5-1.4-1-2.2-1.3c-0.3-0.1-0.4,0.3,0.1,0.5l0,0c0.7,0.3,1.3,0.9,2,1.3c0.1,0.1,0.2,0.2,0.3,0.1
			C140.8,19.1,140.4,18.8,140.2,18.7z"/>
		<path d="M137.2,18.2c-0.1-0.1-0.5-0.3-0.6,0c-0.1,0.1,0.1,0.3,0.3,0.3c0.2,0.1,0.4,0.2,0.6,0.3c0.3,0.1,1,0.5,1.5,0.8
			c0.2,0.4,0.9-0.1,0-0.5C138.4,18.7,137.8,18.4,137.2,18.2z M139.4,19.3L139.4,19.3L139.4,19.3L139.4,19.3z M139.1,19.6L139.1,19.6
			L139.1,19.6z M136.8,18.4L136.8,18.4L136.8,18.4z M136.9,18.3L136.9,18.3L136.9,18.3z M137.1,18.2L137.1,18.2L137.1,18.2
			L137.1,18.2z"/>
		<path d="M135.2,18.9c-0.1-0.1-0.2,0-0.3,0.1s0,0.2,0.1,0.3c0.7,0.3,1.4,0.6,2.1,0.8c0.3,0,2,0.4,1.6-0.3l-0.1-0.1
			c-0.4,0-0.8,0-1-0.1l0,0C136.7,19.5,135.9,19.2,135.2,18.9z"/>
		<path d="M140.9,11.5c0.2-0.2-0.1-0.6-0.3-0.3c-1,1-2.2,2-3.4,2.9c0.1-0.1,0.1-0.1,0.1-0.1c-1.3,0.9-2.7,1.7-4.2,2.2
			c-0.4,0.2-0.9,0.3-1.4,0.4c-0.1,0.1-0.1,0.1-0.1,0.3c0.1,0.2,0.3,0.1,0.6,0.1c2.1-0.5,4-1.5,5.7-2.9
			C138.9,13.3,140.1,12.4,140.9,11.5z"/>
		<path d="M136.1,13.5c-0.2,0.1-0.3,0.2-0.6,0.3c-1,0.6-2.2,1.1-3.3,1.4c-0.2,0.1-0.1,0.5,0.1,0.4c1.4-0.3,2.7-1,4-1.7
			C136.4,13.8,136.2,13.4,136.1,13.5z"/>
		<path d="M135.2,12.9c-0.3-0.1-1.5,0.6-1.9,0.7c-0.3,0.1-0.1,0.6,0.2,0.4c0.5-0.3,1-0.5,1.6-0.7C135.4,13.2,135.4,13,135.2,12.9z"
			/>
		<path d="M135.1,8.8c-0.4,0.1-0.1,0.8,0.2,0.4c0.8-0.3,1.5-0.4,2.4-0.6c0.3-0.1,0.6-0.1,1,0c0.1,0,0.1,0,0.1-0.1
			C139.4,7.6,135.4,8.6,135.1,8.8z"/>
		<path d="M137.7,7.1c-0.1-0.1-0.4,0-0.6,0c-0.3,0.1-1.7,0.2-1.6,0.6c0,0.1,0.1,0.2,0.3,0.1c0.6-0.2,1-0.3,1.6-0.3
			c0.1,0,0.3,0,0.4-0.1C137.8,7.3,137.8,7.1,137.7,7.1z"/>
		<path d="M134.8,9.9c0,0.1,0.1,0.1,0.3,0.1c0.3-0.1,0.7-0.1,1-0.2c0.3-0.1,0.1-0.5-0.1-0.4C135.7,9.4,134.6,9.5,134.8,9.9z"/>
		<path d="M146.4,12.1c-0.6-0.3-1.1-0.5-1.7-0.6c-0.3-0.1-0.4,0.3-0.1,0.4c0.4,0.1,1.1,0.3,1.4,0.5c0.8,0.3,1.5,0.8,2.2,1.4
			c0,0.1,0.2,0.2,0.3,0.2C149.6,13.8,146.8,12.2,146.4,12.1z"/>
		<path d="M147.9,13.5L147.9,13.5L147.9,13.5z"/>
		<path d="M147.9,13.5L147.9,13.5L147.9,13.5z"/>
		<path d="M144.4,12.7c0.4-0.1,0.8,0.1,1.1,0.3c0.1,0,0.4,0.2,0.6,0.3c0.2,0.2,0.5-0.2,0.2-0.3c-0.6-0.3-1.1-0.6-1.7-0.7
			C144.2,12.2,144.1,12.5,144.4,12.7z M144.7,12.7C144.6,12.7,144.7,12.7,144.7,12.7S144.6,12.7,144.7,12.7z"/>
		<path d="M144.1,13.2c-0.3-0.1-0.3,0.4,0,0.4c0.1,0,0.3,0.1,0.5,0.1h-0.1c0.3,0,1,0.5,1-0.1C145.4,13.3,144.4,13.2,144.1,13.2z"/>
		<path d="M145.2,13.8L145.2,13.8L145.2,13.8z"/>
		<path d="M148.6,17.7c0.2-0.3-1-0.8-1.3-0.9c-0.7-0.3-1.5-0.6-2.2-0.6c-0.8-0.1-1.5-0.1-2.3,0.1c-0.1,0.1-0.1,0.1-0.1,0.3
			c0.1,0.3,0.6,0.1,0.8,0.1h-0.1c0.7-0.1,1.3-0.1,2,0.1h-0.1c0.6,0.1,1.3,0.3,1.9,0.6l0,0c0.3,0.1,0.6,0.3,1,0.6
			C148.4,17.9,148.6,17.9,148.6,17.7z"/>
		<path d="M147.2,17.3L147.2,17.3L147.2,17.3z"/>
		<path d="M143.6,17.7c0.1,0.3,0.5,0.1,0.7,0.1h-0.1c0.5-0.1,1,0,1.5,0.1c0.1,0,0.3-0.2,0.2-0.3c-0.3-0.3-1.6-0.2-2.1-0.1
			C143.7,17.3,143.6,17.5,143.6,17.7z M145.4,17.7L145.4,17.7L145.4,17.7z"/>
		<path d="M145.4,19.1c0.2,0.1,0.6-0.1,0.8-0.1c0.3-0.1,0.8,0.1,0.8-0.2c0-0.5-1.3-0.2-1.6-0.1C145.2,18.7,145.2,19,145.4,19.1z"/>
		<path d="M140.9,29.8c0.5,0.1,0.9,0.3,1.4,0.3c1.7,0.3,3.6,0.4,5-0.6c0.3-0.1,0-0.6-0.2-0.4c-1.3,0.8-2.8,0.8-4.3,0.6l0,0
			c-0.6-0.1-1.2-0.3-1.8-0.4C140.8,29.3,140.6,29.7,140.9,29.8z"/>
		<path d="M143.2,29L143.2,29L143.2,29z"/>
		<path d="M143.2,29L143.2,29c-0.2,0-0.7-0.3-0.8,0c-0.1,0.1,0,0.3,0.1,0.3c0.7,0.1,1.4,0.2,2.1,0.3c0.1,0,0.2-0.1,0.2-0.2
			s-0.1-0.2-0.2-0.2C144.2,29.1,143.7,29.1,143.2,29z"/>
		<path d="M144.9,28c-0.1,0.1-0.3,0-0.6,0h0.1c-0.1-0.1-0.3-0.1-0.6-0.2l0,0c-0.1,0-0.2-0.1-0.3-0.1c-0.2-0.2-0.5,0.2-0.2,0.3
			c0.5,0.3,1.2,0.6,1.7,0.3C145.4,28.2,145.2,28,144.9,28z"/>
		<path d="M143.9,27.8L143.9,27.8C143.9,27.8,143.9,27.8,143.9,27.8z"/>
		<path d="M145.2,27L145.2,27L145.2,27z"/>
		<path d="M145.2,27L145.2,27L145.2,27z"/>
		<path d="M146.7,32.4c0-0.1-0.1,0-0.1,0c-0.4,0.3-0.8,0.5-1.3,0.7c-0.8,0.3-1.7,0.5-2.7,0.4c-0.1,0-0.2,0.1-0.2,0.2
			c0,0.4,0.9,0.2,1.2,0.2c1.2-0.1,2.3-0.4,3.3-1.1C146.9,32.8,146.9,32.5,146.7,32.4z"/>
		<path d="M144.2,32.5c-0.3,0-0.6,0.2-1,0.2c-0.2,0.1-0.6-0.1-0.7,0.2c0,0.6,1.5,0.1,1.7,0C144.4,32.9,144.4,32.6,144.2,32.5z"/>
		<path d="M131.8,33.7c0.7,0.1,1.4,0.1,2.1,0.1c0.1,0,0.2-0.1,0.2-0.2c0-0.4-0.6-0.2-0.8-0.3c-0.8-0.1-1.5-0.1-2.3-0.2h0.1
			c-0.6-0.1-1.3-0.2-1.8-0.5c-0.2-0.1-0.5-0.4-0.7-0.1C128.1,33.1,131.2,33.7,131.8,33.7z"/>
		<path d="M129.2,34c0.6,0.3,1.4,0.6,2.2,0.4c0.2-0.1,0.2-0.3,0.1-0.4c-0.3-0.1-0.8,0-1.1-0.1h0.1c-0.3,0-0.6-0.1-0.8-0.2
			c-0.1,0-0.1-0.1-0.2-0.1C129.2,33.5,128.9,33.9,129.2,34z"/>
		<path d="M129.7,33.7L129.7,33.7L129.7,33.7z"/>
		<path d="M131.8,39.2c-0.2,0-0.5,0-0.8-0.1h0.1c-0.8-0.2-1.5-0.5-2.2-1l0,0l0,0c-0.1-0.1-0.5-0.3-0.6,0c0.1,0.3,0.6,0.5,0.8,0.7
			c0.8,0.5,1.8,0.8,2.8,0.8C132.2,39.7,132.2,39.2,131.8,39.2z"/>
		<path d="M128.1,38.6c-0.1-0.1-0.3-0.5-0.6-0.3c-0.1,0.1-0.1,0.3,0,0.3c0.3,0.1,0.8,0.8,1,0.5C128.7,38.9,128.2,38.8,128.1,38.6z"
			/>
		<path d="M132.7,37.4L132.7,37.4L132.7,37.4z"/>
		<path d="M132.1,37.2C132.1,37.1,132.1,37.2,132.1,37.2S132.1,37.1,132.1,37.2z"/>
		<path d="M132.1,37.2L132.1,37.2L132.1,37.2z"/>
		<path d="M134.4,37.2c-0.6,0.1-1.3,0.2-1.9,0.1l0,0c-0.2,0-0.3-0.1-0.6-0.1c-0.3-0.2-0.6,0.1-0.3,0.3c0.8,0.5,1.9,0.3,2.9,0.2
			C134.9,37.6,134.8,37.2,134.4,37.2z"/>
		<path d="M151.6,21.4L151.6,21.4L151.6,21.4z"/>
		<path d="M151.6,21.4L151.6,21.4L151.6,21.4z"/>
		<path d="M150.1,21.9c0.1-0.4-1.4-0.2-1.7-0.2c-0.1,0-0.1,0.1-0.1,0.3c0.1,0.2,0.3,0.1,0.5,0.1h-0.1c0.3-0.1,0.8-0.1,1.2,0
			C149.9,22.1,150.2,21.9,150.1,21.9z"/>
		<path d="M153.9,25.5L153.9,25.5L153.9,25.5z"/>
		<path d="M152.9,24.7C152.9,24.6,152.9,24.7,152.9,24.7L152.9,24.7C152.9,24.6,152.9,24.6,152.9,24.7z"/>
	</g>
</g>
<g>
	<path class="st1" d="M26.4,13.6h0.4c1.2,0,1.9,0.6,1.9,1.7l-1.4,12.8h0.1c1.9,0,2.9-0.2,2.9-0.7c0.1-0.4,0.1-0.9,0.2-1.6
		c0-0.2-0.1-0.3-0.1-0.5V25c0-0.4,0.6-0.7,1.9-0.7c0.3,0,0.4,0.4,0.4,1.1l0.2,9.4c0,0.6-0.3,0.9-0.8,0.9c-2-0.3-3.7-0.5-5-0.5
		c-1.6,0-3.2,0.2-5,0.6c-0.5,0-0.8-0.5-0.8-1.4v-2.9c0-0.1,0-0.2,0.1-0.2c0-0.1-0.1-0.2-0.1-0.2v-0.2c0,0,0-0.1,0.1-0.1
		c0,0,0-0.1-0.1-0.1c0.1-1.5,0.1-3.8,0.1-6.8v-2c-0.2-4.3-0.3-6.7-0.3-7.3c0.2-0.4,0.5-0.7,0.9-0.7h0.3C22.6,13.9,24,13.8,26.4,13.6
		z"/>
	<path class="st1" d="M43.6,13.2h0.5c2,0.1,3,0.6,3.1,1.2c0,0.3,0.3,3.1,0.8,8.2c0,0.7,0.1,1.4,0.1,1.9c0,5.3-2.1,8.9-6.3,10.8
		c-0.8,0.3-2.2,0.7-4.3,1.1c-0.9,0-1.4-0.5-1.5-1.6v-0.1c0.1-1.2,0.1-1.8,0.1-1.9v-0.2c0-0.6-0.4-2.6-1.1-6.1c-0.2-1-0.3-2-0.3-3.1
		c0-5,2.2-8.2,6.7-9.8C42.2,13.3,42.9,13.2,43.6,13.2z M40.2,17.8c-0.4,1-0.7,2.5-0.7,4.4c0,3,0.9,6.3,2.6,9.9v0.1h0.1
		c0.7-1.5,1.1-3.1,1.1-4.6c0-3.2-0.9-6.3-2.8-9.2C40.3,18.1,40.2,17.9,40.2,17.8L40.2,17.8z"/>
	<path class="st1" d="M55.3,13.6h0.3c1.2,0,1.9,0.6,1.9,1.7l-1.4,12.8h0.1c1.9,0,2.9-0.2,2.9-0.7c0.1-0.4,0.1-0.9,0.2-1.6
		c0-0.2-0.1-0.3-0.1-0.5V25c0-0.4,0.6-0.7,1.9-0.7c0.3,0,0.4,0.4,0.4,1.1l0.2,9.4c0,0.6-0.3,0.9-0.8,0.9c-2-0.3-3.7-0.5-5-0.5
		c-1.6,0-3.2,0.2-5,0.6c-0.5,0-0.8-0.5-0.8-1.4v-2.9c0-0.1,0-0.2,0.1-0.2c0-0.1-0.1-0.2-0.1-0.2v-0.2c0,0,0-0.1,0.1-0.1
		c0,0,0-0.1-0.1-0.1c0.1-1.5,0.1-3.8,0.1-6.8v-2c-0.2-4.3-0.3-6.7-0.3-7.3c0.2-0.4,0.5-0.7,0.9-0.7h0.3
		C51.5,13.9,52.9,13.8,55.3,13.6z"/>
	<path class="st1" d="M75.6,14.1c0.3,0,0.6,0.2,0.8,0.7l-0.1,0.3v0.7c1,3.6,1.4,6.1,1.4,7.4c0.1,0.6,0.3,2.6,0.7,5.9
		c0.2,0.8,0.4,2.6,0.7,5.5c-0.1,0.5-0.4,0.8-0.7,0.8c-0.9-0.2-1.6-0.3-2.3-0.3L73,35.5c-0.4-0.1-0.6-0.4-0.6-0.8
		c0-1.1-0.3-2.2-1-3.2c-0.5,0-0.7,0.4-0.7,1.2c-0.4,1.7-0.8,2.7-1.4,2.7c-0.1,0-0.2,0-0.2,0.1c0,0-0.1,0-0.2-0.1
		c-0.2,0-1.7,0.1-4.4,0.2c-0.4,0-0.7-0.2-0.9-0.6c0-0.7,0.1-1.2,0.1-1.5v-2.1c0-3.3,0.6-7.6,1.8-12.9l0.2-1.3
		c-0.1-1-0.2-1.7-0.2-2.1c0.1-0.6,0.4-0.8,0.8-0.8c1.3,0.3,2.5,0.4,3.5,0.4h1.8C73,14.7,74.4,14.5,75.6,14.1z M71.6,17.9
		c-0.9,4.4-1.3,7.3-1.3,8.7c1-1.1,1.9-1.9,2.7-2.4C72.9,23.9,72.5,21.8,71.6,17.9L71.6,17.9z"/>
	<path class="st1" d="M177.9,13.7c0.4,0,0.6,0.3,0.7,0.9c0,4.1,0.3,7.7,0.9,10.9v0.2c0,0.9-2.6,2.1-7.8,3.7
		c-0.2,0.2-0.2,0.4-0.2,0.6v0.4c0,1,0.2,2.5,0.5,4.5V35c0,0.4-0.9,0.6-2.8,0.6h-1.9c-0.5,0-0.7-0.3-0.7-0.8
		c-0.1-2.8-0.2-4.6-0.3-5.2h0.1l-0.1-0.1c-0.4-8.5-0.5-13.1-0.5-13.8c0.1-0.8,0.5-1.1,1.1-1.1l3.2,0.2
		C171.9,14.7,174.6,14.4,177.9,13.7L177.9,13.7z M172.1,18.4l-0.3,7.6c1.6-0.8,2.3-1.3,2.3-1.6C173.9,23.5,173.2,21.5,172.1,18.4
		L172.1,18.4z"/>
	<path class="st1" d="M193.2,14.4c0.3,0.2,0.5,0.4,0.5,0.5c0,2.7-0.1,4.8-0.1,6.4v2.3c0,0.9-0.2,1.3-0.7,1.3c0,0-0.6,0.2-1.8,0.6
		c-0.6,0-0.9-0.8-0.9-2.4c0-0.2-0.8-0.4-2.5-0.5c-0.1,0.4-0.2,0.8-0.2,1.2v1c0,0.2,0.5,0.3,1.5,0.4c0.4,0.2,0.5,0.5,0.5,0.9
		c-0.1,0.5-0.9,0.9-2.2,1c-0.3,0.3-0.4,0.9-0.4,1.8c0,0.2,0.4,0.4,1.3,0.4c0.9,0,1.6,0,2.1,0.1c0.1-1.6,0.5-2.4,1.1-2.4
		c0,0,0.1,0,0.2-0.1c1.4,0.2,2.1,0.7,2.1,1.6c-0.1,1.1-0.1,1.8-0.1,2c0,0.4,0,1.6,0.1,3.5c-0.1,0.8-0.4,1.2-1,1.2h-0.4
		c-0.5,0-1.3,0-2.4,0.1c-2.4,0-3.9-0.1-4.4-0.1c-1.6,0.2-2.5,0.2-2.8,0.2h-0.5c-0.7-0.1-1-0.4-1-0.9c0.2-1.3,0.2-2.2,0.2-2.9v-0.3
		c0-0.7-0.1-3.9-0.2-9.5c0.1-4.6,0.3-6.9,0.7-6.9c0-0.3,1.8-0.4,5.3-0.4C187.8,14.7,189.9,14.6,193.2,14.4z"/>
	<path class="st1" d="M199.4,13.8c3,0.2,4.8,0.4,5.4,0.7c0.2,0,0.3,0.1,0.4,0.4c-2.2,5.1-3.3,7.9-3.3,8.4c0.2,0.1,0.9,0.4,2.2,0.9
		c1.3,0.6,2,1.1,2,1.5v0.2c0,0.2-1.1,2.3-3.3,6.3c-1.6,3.1-2.6,4.7-3,4.7c0,0.1-0.2,0.1-0.5,0.1c-3-0.4-4.5-0.9-4.5-1.5l0,0
		c0-0.2,0.7-1.5,2.1-3.9c1.4-2.4,2.1-3.7,2.1-4c-2.4-0.9-3.6-1.6-3.6-2.2v-0.1c0-0.4,0.7-2.4,2-6.2c0.8-2.8,1.2-4.5,1.5-5
		L199.4,13.8z"/>
	<path class="st1" d="M215.7,13h0.7c2.7,0.2,4.1,0.6,4.1,1.1l0.1,0.4v0.2c-0.2,3.6-0.5,5.5-0.8,5.9c-0.5,0.9-1.5,2.2-3.1,4
		c-0.1,0.1-0.2,0.1-0.4,0.1h-0.1c-0.2-0.1-0.3-0.3-0.3-0.5v-0.3c0.1-1.6,0.1-2.4,0.1-2.5c0-0.4-0.5-0.6-1.4-0.6h-0.7
		c0,2.1,0.3,4.4,0.8,7c0.2,0.7,0.5,1.3,0.9,1.8h0.1c1.2-2.5,2.6-5,4.3-7.7h0.1c0.3,0,0.4,0.1,0.4,0.4c0,0,0,0.3-0.1,0.8
		c0,0.5,0.1,1.8,0.2,4v1c0,2.4-1.5,4.6-4.4,6.8c-1,0.7-1.8,1-2.4,1.1c-1.4,0-2.9-1.1-4.6-3.2c-1.4-2.1-2.2-4.8-2.2-8.1
		c0-5,1.7-8.6,5.1-10.7C213.4,13.3,214.6,13,215.7,13z"/>
	<path class="st1" d="M234.4,14.1c0.3,0,0.6,0.2,0.8,0.7l-0.1,0.3v0.7c1,3.6,1.4,6.1,1.4,7.4c0.1,0.6,0.3,2.6,0.7,5.9
		c0.2,0.8,0.4,2.6,0.7,5.5c-0.1,0.5-0.4,0.8-0.7,0.8c-0.9-0.2-1.6-0.3-2.3-0.3l-3.1,0.4c-0.4-0.1-0.6-0.4-0.6-0.8
		c0-1.1-0.3-2.2-1-3.2c-0.5,0-0.7,0.4-0.7,1.2c-0.4,1.8-0.9,2.8-1.4,2.8c-0.1,0-0.2,0-0.2,0.1c0,0-0.1,0-0.2-0.1
		c-0.2,0-1.7,0.1-4.4,0.2c-0.4,0-0.7-0.2-0.9-0.6c0-0.7,0.1-1.2,0.1-1.5v-2.2c0-3.3,0.6-7.6,1.8-12.9l0.2-1.3
		c-0.1-1-0.2-1.7-0.2-2.1c0.1-0.6,0.4-0.8,0.8-0.8c1.3,0.3,2.5,0.4,3.5,0.4h1.8C231.9,14.7,233.2,14.5,234.4,14.1z M230.4,17.9
		c-0.9,4.4-1.3,7.3-1.3,8.7c1-1.1,1.9-1.9,2.7-2.4C231.9,23.9,231.4,21.8,230.4,17.9L230.4,17.9z"/>
</g>
</svg>
