<?xml version="1.0" encoding="utf-8"?>
<!-- Generator: Adobe Illustrator 25.4.1, SVG Export Plug-In . SVG Version: 6.00 Build 0)  -->
<svg version="1.1" id="Capa_1" xmlns="http://www.w3.org/2000/svg" xmlns:xlink="http://www.w3.org/1999/xlink" x="0px" y="0px"
	 width="250px" height="50px" viewBox="0 0 250 50" style="enable-background:new 0 0 250 50;" xml:space="preserve">
<style type="text/css">
	.st0{fill:#FFFFFF;}
</style>
<g>
	<path class="st0" d="M90.4,35.3l3.6,8.1h3.5c-0.2-0.6-0.3-1.2-0.3-1.8c0-3.2,2.6-5.9,5.9-5.9c3.2,0,5.9,2.6,5.9,5.9
		c0,0.6-0.1,1.2-0.3,1.7l26.8-0.1l0.5-0.1c-0.1-0.3-0.1-0.6-0.1-1c0-2.9,2.4-5.2,5.2-5.2s5.2,2.4,5.2,5.2c0,0.3,0,0.5-0.1,0.8h2.9
		l0.4-9.4l5.3-4.3l4-7.2l-5.1-4l-0.5-3.4l-8.5-7l-5.7-1.5l-2.6,0.3l-0.9-2.8l-5.7,0.8L126,5.9L124.7,4l-8.2,2.4L108.9,17
		c-0.1,0-16.1,1.5-16.1,1.5l4.1,9.1L90.4,35.3z"/>
	<circle cx="141.2" cy="42.4" r="5"/>
	<circle class="st0" cx="141.2" cy="42.4" r="1.3"/>
	<circle cx="103.1" cy="42.4" r="5"/>
	<circle class="st0" cx="103.1" cy="42.4" r="1.3"/>
	<g>
		<path d="M118.2,8.4c0,0.2,0.3,0.2,0.4,0.1c0.1-0.1,0.5-0.5,0.7-0.6c-0.1,0.1,0,0,0,0c0.4-0.2,0.8-0.4,1.3-0.6h-0.1
			c0.5-0.1,1-0.3,1.5-0.3c0.3,0,0.2-0.5-0.1-0.4c-0.8,0.1-1.7,0.3-2.5,0.8C119.1,7.5,118.2,7.9,118.2,8.4z"/>
		<path d="M114.5,43.7h0.6H114.5z"/>
		<path d="M108.8,43.3c-0.1,0.2-0.1,0.2-0.2,0.4c5,0.4,22.1,0,27.4-0.1c-0.1-0.3-0.1-0.6-0.1-0.9c-4.2,0.5-23,0.1-27,0.3
			c0-0.1,0,0,0,0L108.8,43.3z"/>
		<path d="M90.1,35.1c0.9,2.2,2.9,6.5,3.8,8.6h3.8c-0.1-0.3-0.1-0.6-0.2-0.8h-3.1c-0.8-1.9-2.6-5.7-3.3-7.6l6.5-7.6L93.4,19
			l15.9-1.7l4.1-5.7c0.1,1.5,0.8,3.1,2,4.2c-1.3,0.3-2.4,1.2-3,2.5l-3.8,0.3l3,18.1l7.5,5l7-0.3l-0.7-2.8c2.9,2.2,6.9,3.6,10.6,2.7
			c0.1-0.8,0.4-1.6,0.9-2.3c-3.3,1.7-7.2,0.5-10.3-1.1c1.3,0.1,2.5-0.1,3.7-0.4c0.8,0.6,1.7,1,2.7,1.1c1,0.2,2.2,0.1,3.2-0.1
			c0.1,0,0.1-0.1,0-0.1c-1,0-2-0.3-2.9-0.8c-0.2-0.1-0.4-0.3-0.6-0.4c-0.4-0.3-0.6-0.6-0.9-0.8c2.7,0.9,5.6,0.7,8.1-0.3
			c-0.1,0.4-0.4,0.8-0.7,1.2c0.7-0.3,1.6-0.5,2.4-0.4c0.1-0.3,0.2-0.6,0.3-0.8c2,0.4,4.1,0.1,6-0.6c-0.6,1.3-1.5,2.4-2.8,3.1
			c0.4,0.5,0.8,1,1,1.5c1.2-0.7,2.2-1.7,3-2.8l-0.1,2.5h-1.3l-0.1,2.5h1.3v0.4h-2.4c0,0.3-0.1,0.6-0.1,0.8h3.3l0.1-1.3l3.1,0.1
			c0.7,0,1.3-0.6,1.3-1.3c0-0.6-0.6-1.3-1.3-1.3l-3.1-0.1l0.1-4.2c0.2-0.5,0.5-1.1,0.4-1.6c1.2-0.8,2.2-2,3-3.2
			c3.3-1.1,5.1-4.5,6.3-7.5c1-2.9-2.6-4.5-4.7-5.5c0.3-0.9,0-1.8-0.4-2.7c-1.5-3.1-4.4-5.2-7.5-6.6c1-1.9-4.2-2.9-5.4-3.1
			c-1.5-0.1-2.9-0.2-4.3,0c0.1-0.8,0.6-2.3-0.6-2.7c-3.5-0.5-7.2,0.1-10.2,2c0.2-0.8-0.1-1.5-1-1.5c-4.7-0.2-10.6,1.6-11.9,6.7
			l-4.7,6.6l-16.7,1.7l4.4,9.2L90.1,35.1z M135.3,4.7c-0.3,4.7-3.8,8.7-8.2,9.9c-0.4,0.2-0.8,0.1-1.3,0c1.5-0.3,2.7-1.1,3.8-2
			c1.1-0.9,2.2-1.8,3.2-2.9c0.5-0.6,0.9-1.1,1.3-1.7c0.2-0.2-0.2-0.4-0.3-0.2c-0.3,0.4-0.6,0.8-0.8,1.1c-1.3,1.5-2.9,2.8-4.4,4
			c0.1-0.1,0.1-0.1,0.1-0.1c-0.6,0.3-1.2,0.7-1.8,1c-0.4,0.1-0.8,0.3-1.3,0.3c-0.1,0.1-0.2,0.2-0.1,0.3c-0.8-0.1-1.6-0.1-2.4-0.1
			c2.7-2.8,5.9-5.6,9.1-7.3c-2.4,0.8-5,1.6-7.1,3c0.4-1,0.8-2,1-2.9c1.5-0.8,2.9-1.7,4.5-2.2C132.2,4.7,133.8,4.5,135.3,4.7z
			 M131.7,20.6c-2.4-1.5-5.4-2.3-8.3-1.7c-1-0.8-2.2-1.6-3.5-2.2c5-1.5,10.7,0,14.3,3.8c0.2,0.3-0.2,0.7-0.5,1
			c-2.9,2.8-6.9,3.9-10.8,4c0.8-0.4,1.5-0.9,2.4-1.3c0.4-0.2,0.9-0.4,1.3-0.7c0.3-0.3,0.6-1,0.1-1.4c-0.6-0.5-1-1.2-1.7-1.7
			c2.1-0.4,4.4-0.5,6.4,0.3C131.6,20.9,131.7,20.8,131.7,20.6z M143.9,22.3c-2.4-1.1-5.1-2.6-7.8-1.8c-0.1-0.9-0.8-1.7-1.4-2.2
			c1.5-0.1,3.1-0.6,4.5-1.3c1.5,0.8,3.1,1.5,4.5,2.6c1,0.8,3.4,2,2.4,3.6c-1.5,2.5-4.1,4.1-6.8,5.1c-2-1.6-4.3-2.7-6.7-3.4
			c0.7-0.4,1.4-0.9,2-1.5c0.4-0.1,0.8-0.3,1.3-0.6c2.5-1,5.4-1,8-0.2C144,22.5,144,22.3,143.9,22.3z M129.5,15.3L129.5,15.3
			C129.5,15.3,129.5,15.3,129.5,15.3C129.6,15.3,129.5,15.3,129.5,15.3z M144.9,8.6c-2,4.7-6.6,7.4-11.3,8.8
			c-0.6-0.4-1.2-0.8-1.8-1.1c2.7-3,6.2-5.7,10.1-6.7c0.1,0,0.1-0.3-0.1-0.3c-2.3,0.1-4.6,0.5-6.6,1.5c0.8-1.1,1.3-2.4,1.7-3.6
			c1.5-0.3,3-0.3,4.5,0C142.5,7.5,143.7,7.9,144.9,8.6z M152.1,17.9c-1.3,1-2.9,1.7-4.3,2.5c-1.5-1.7-3.5-3-5.5-4.1
			c2.8-0.7,5.9-0.7,8.6,0.6c0.1,0.1,0.3-0.1,0.1-0.2c-2.2-1.5-4.9-2.7-7.6-2.6c1.2-1.1,2.1-2.4,2.9-3.8c2.7,0.9,4.7,2.9,6.2,5.2
			C153.2,16.8,153.4,17.2,152.1,17.9z M150.4,24.5c1.7-0.6,3.6-1.2,5.4-1c0.1,0.1,0.1-0.1,0-0.1c-2.4-1-5.1-1.2-7.5-0.2
			c0.1-0.5,0.1-0.9,0.1-1.4c1-0.1,2-0.6,2.9-1c-0.1,0.4,0.5,0.3,0.7,0.3l0,0c0.6,0.1,1.1,0.3,1.6,0.6c0.1,0.1,0.2,0.1,0.3-0.1
			c0.3-0.6-1.9-1-2.2-1c0.5-0.3,0.9-0.5,1.3-0.8c-0.1,0.1-0.1,0.3,0.1,0.3c0.4,0.1,0.8,0.3,1.2,0.4c0.1,0.1,0.6,0.3,0.8,0.3l0,0
			c0.5,0.3,0.4,1,0.8,0.9c0.4-0.1-0.1-0.8-0.2-1c-0.6-0.6-1.7-1.1-2.5-1.1c0.2-0.1,0.3-0.2,0.6-0.3c0.8,0.3,4.3,2.2,4.2,3.1
			c-0.6,2.2-1.8,4.3-3.3,6.1c0.2-0.6,0.3-1.3,0.1-2c0.6-0.2,1.1-0.8,1.5-1.5c0.2-0.2-0.2-0.4-0.3-0.2c-0.1,0.2-0.3,0.4-0.4,0.6
			c-0.1,0.3-0.6,0.6-0.8,0.8c-0.2-0.3-0.4-0.5-0.6-0.5c0.1-0.1,0.2-0.2,0.3-0.3c-0.1,0.1-0.1,0.1-0.1,0.1c0.3-0.3,0.8-0.6,0.8-1
			c0-0.2-0.2-0.3-0.3-0.3c-0.2,0.1-0.1,0.3-0.3,0.4c0-0.1,0,0,0,0l0,0c-0.1,0.1-0.2,0.2-0.3,0.3c0.1-0.1,0.1-0.1,0.1-0.1
			c-0.2,0.1-0.6,0.3-0.6,0.6C152.6,24.8,151.5,24.6,150.4,24.5z M140.5,29.3c1.9-0.4,3.6-1.4,5.2-2.7c0.3,0.4,0.9,0.7,1.4,0.8
			c0.3,0.1,0.4-0.3,0.1-0.4c-0.2,0-0.3-0.1-0.5-0.1l0,0c-0.3-0.1-0.6-0.3-0.8-0.5c0,0,0.1-0.1,0.1-0.1c0.5,0.1,1-0.1,1.6-0.1
			c0.8,0,1.7,0.1,2.4,0.3c0.5,0.1,2.4,0.4,2.4,0.9c-1.2,4.5-5.7,7.3-10.3,7.3c0.9-0.5,1.6-1.2,0.8-2.2c2.9,0.1,5.7-1.3,7.7-3.3
			c0.1-0.1,0-0.3-0.1-0.2c-2.7,1.7-6.1,1.8-9.2,1.3C141.2,30,140.8,29.7,140.5,29.3z M128.6,31c2.6,1.3,5.5,1.7,8.4,1.5
			c0.1,0,0.1-0.1,0-0.1c-1-0.2-2.1-0.5-3.1-0.8c-2.7-1.1-5.3-2.7-7.4-4.7c1.3-0.1,2.6-0.4,3.8-0.9c4.4,0.9,8.2,3.7,10.9,7.3
			c-3.1,2.1-7,2.1-10.6,1.4C130,33.3,129.4,32.2,128.6,31z M121.8,34.3c-0.2-0.9-0.3-1.9-0.4-2.8c0.2,0.2,0.5,0.3,0.7,0.6
			c0.2,0.1,0.4-0.1,0.3-0.3c0.1,0.2,4.1,2.9,3.6,2c-2.5-1.7-4.2-4.3-5.5-7c0.1-0.1,0.2-0.1,0.3-0.1c0.5,0.1,1,0.3,1.5,0.6
			c-0.1,0.1-0.1,0.3,0,0.3c0.3,0.2,0.6,0.4,0.9,0.6c1,0.8,2,1.7,2.7,2.8c-0.1-0.1-0.1-0.1-0.1-0.1c0.2,0.2,0.3,0.8,0.7,0.7
			c0.1,0,0.1-0.2,0.1-0.3c-0.7-1-1.5-2-2.5-2.9c2.4,1.8,4,4.5,4.9,7.5C126.5,36.6,123.8,35.9,121.8,34.3z M121.8,31.5
			c-0.2-0.1-0.5-0.3-0.6-0.1c0-0.2,0-0.3-0.1-0.6C121.4,31,121.6,31.3,121.8,31.5z M121.2,37.3c0.5,0.1,0.9-0.4,0.9-0.9
			c0.5,0.3,1,0.6,1.5,0.8c0.1,0.2,0.3,0.3,0.5,0.6l0.8,2.9l-5.7,0.3l-6.8-4.6l-2.8-16.8l2.6-0.2c-0.1,0.8-0.2,1.7-0.1,2.4
			c0,1.3,0.5,2.5,1.3,3.5c-0.6,1-0.6,2.3-0.6,3.4C113,33.2,116.8,37,121.2,37.3z M119.4,31.3c0.2,1.3,0.3,2.7,0.6,3.9
			c-2.9-0.8-5.1-3.4-5.3-6.4c0.6,1,1.3,2,2.1,2.8c0.1,0.1,1.7,1.8,1.5,1.1c-0.6-0.8-1.2-1.6-1.5-2.5c0.1,0.1,0.2,0.3,0.3,0.5
			c0.1,0.3,0.6,0.1,0.4-0.2c-0.2-0.4-0.4-0.8-0.6-1.2c-0.1-0.1-0.3-0.1-0.3-0.1c-0.2-0.7-0.3-1.4-0.5-2.1c0.5,0.2,1,0.3,1.6,0.3
			c0.8,0.7,1.3,1.6,1.5,2.6c-0.3-0.8-0.8-1.5-1.3-2.1c-0.2-0.2-0.6,0.1-0.3,0.3c0.5,0.6,0.9,1.2,1.2,1.9c0.2,0.4,0.3,0.8,0.3,1.3
			c0.1,0.2,0.3,0.2,0.4,0.1C119.4,31.4,119.4,31.3,119.4,31.3z M117.4,17.6c-0.3,0-1.3-0.1-0.9,0.4c0.4,0.1,0.8-0.1,1.3,0.1h-0.1
			c0.5,0.1,0.9,0.2,1.3,0.4l0,0c0.5,0.3,1,0.6,1.4,0.8c0.6,0.4,1.1,0.8,1.7,1.2c0.1,0.1,0.2,0,0.3-0.1c0.1-0.1,0-0.2-0.1-0.3
			c-0.7-0.5-1.4-1-2.2-1.5c1.7,1,3.3,2.2,4.5,3.8c-2.4,1.1-4.6,3.3-7.4,3.1c-1.3-0.1-2.3-0.8-3-1.9c-0.1-0.4-0.1-1-0.1-1.4
			c2.3,1.4,5.3,1.3,7.7,0.3c0.1,0,0.1-0.1-0.1-0.1c-2.9,0.6-5.7-0.8-7.7-2.7c0.1-0.1,0.1-0.3,0.1-0.4
			C114.8,17.9,116.1,17.4,117.4,17.6z M116.6,9.4c-0.6,0.6-1.2,1.3-1.5,2.2c0.4-4.5,5.4-6.3,9.3-6.2c-0.4,3.6-3.1,8.4-6.8,9.2
			c1.7-1,3.2-2.5,4.3-4.3c0.3-0.4,0.6-0.8,0.8-1.3c0.1-0.2,0-0.4-0.2-0.3c-0.1,0-0.1,0.1-0.2,0.2c-0.4,0.8-1,1.6-1.5,2.3l0,0
			c-0.8,0.9-1.6,1.7-2.6,2.4c0.1-0.1,0.1-0.1,0.1-0.1c-0.2,0.1-0.4,0.3-0.6,0.4c0.1-2.4,2-4.5,3.8-5.9c0.2-0.1,0-0.3-0.1-0.3
			c-2.5,1.1-5.4,2.5-5.7,5.7c-0.1-0.3-0.2-0.7-0.3-1.1c0.1-0.1,0.1-0.1,0.1-0.2c0.4-1,1-1.8,1.7-2.5C117.2,9.5,116.9,9.1,116.6,9.4z
			"/>
		<path d="M96.4,41.8h0.8c0.1-7.7,11.4-7.8,11.7-0.1h0.8c0-3.7-3.1-6.6-6.8-6.6C99.4,35,96.2,38.2,96.4,41.8z"/>
		<polygon points="102.5,26.4 105.7,19.3 95,20.4 98.1,27 		"/>
		<polygon points="103.4,26.4 109,25.8 107.7,19.6 106.4,19.7 		"/>
		<polygon points="97.8,27.9 91.6,35.1 102.3,27.2 		"/>
		<path d="M93.5,36.1L92.1,36l2,5l0.8-0.8C96.4,38.8,95.6,36.3,93.5,36.1z"/>
		<path d="M109.4,29.1c-0.1,0-7.7,0.3-7.7,0.3c-0.1,0-0.3,0.1-0.3,0.3c0,0.1,0.1,0.3,0.3,0.3c0.3,0,7.6-0.3,7.8-0.3
			C109.8,29.6,109.8,29.1,109.4,29.1z"/>
		<path d="M109.7,30.4c-0.1,0-10,0.6-10.1,0.6c-0.1,0-0.3,0.1-0.3,0.3c0,0.1,0.1,0.3,0.3,0.3c0.2,0,10-0.6,10.2-0.6
			C110.1,30.9,110,30.4,109.7,30.4z"/>
		<path d="M110,31.7c-0.1,0-12.4,0.6-12.5,0.6s-0.3,0.1-0.3,0.3c0,0.1,0.1,0.3,0.3,0.3c0.6,0,12.4-0.6,12.6-0.6
			C110.3,32.2,110.3,31.7,110,31.7z"/>
		<path d="M110.2,33.1c-0.1,0-15,0.8-15.1,0.8v0.6c0.7-0.1,15-0.8,15.2-0.8C110.6,33.6,110.5,33.1,110.2,33.1z"/>
		<path d="M114,38.7c-1.5,0-4.3,0-4.3,0c-0.1,0-0.3,0.1-0.3,0.3c0,0.1,0.1,0.3,0.3,0.3c0.1,0,3.9,0,4.4,0
			C114.4,39.2,114.3,38.8,114,38.7z"/>
		<path d="M115.1,39.7c-1.7,0.1-5.3-0.3-5.1,0.2c0,0.1,0.1,0.3,0.3,0.3c0.1-0.1,4.4,0,4.9,0C115.4,40.1,115.4,39.7,115.1,39.7z"/>
		<path d="M116.2,40.5c-1.9,0.1-5.7-0.3-5.5,0.2c0,0.1,0.1,0.3,0.3,0.3c0.1,0,4.7,0.1,5.3,0.1C116.5,41,116.5,40.5,116.2,40.5z"/>
		<path d="M117.7,41.4c0,0-6.1-0.1-6.2-0.1c-0.1,0-0.3,0.1-0.3,0.3c0,0.1,0.1,0.3,0.3,0.3c0.1,0,5.7,0.1,6.3,0.1
			C118,41.9,117.9,41.4,117.7,41.4z"/>
		<path d="M133,8.9L133,8.9L133,8.9L133,8.9z"/>
		<path d="M133,8.9L133,8.9L133,8.9z"/>
		<path d="M130.4,9.9c-0.4,0.3-0.8,0.7-1.3,1c0.1-0.1,0.1-0.1,0.1-0.1c-1,0.6-2,1.2-3,1.7c-0.1,0-0.1,0.2-0.1,0.3
			c0.1,0.3,1-0.3,1.3-0.4c1.2-0.6,2.3-1.4,3.3-2.3C130.9,9.9,130.6,9.6,130.4,9.9z"/>
		<path d="M129,9.7c-0.2,0.1-0.5,0.4-0.7,0.6c0.1-0.1,0.1-0.1,0.1-0.1c-0.3,0.3-0.8,0.5-1.3,0.7c-0.1,0-0.1,0.2-0.1,0.3
			c0.2,0.3,0.6-0.1,0.8-0.1c0.6-0.2,1-0.6,1.4-1C129.4,9.9,129.3,9.7,129,9.7z"/>
		<path d="M128.8,7c-1,0.3-2.1,0.6-2.9,1.3c-0.1,0.1-0.1,0.3,0,0.3c0.3,0.2,0.4-0.1,0.6-0.2c0.7-0.5,1.6-0.8,2.4-1
			C129.2,7.5,129.2,7,128.8,7z"/>
		<path d="M120.7,11.2L120.7,11.2L120.7,11.2z"/>
		<path d="M120.6,10.4c-0.3-0.3-0.6,0.3-0.8,0.4c-0.6,0.6-1.1,1-1.7,1.5c-0.1,0.1-0.1,0.4,0.1,0.4c0.3-0.1,0.5-0.3,0.7-0.5
			C119.2,12,121,10.7,120.6,10.4z"/>
		<path d="M116.4,10.4L116.4,10.4L116.4,10.4z"/>
		<path d="M119.1,18.5L119.1,18.5L119.1,18.5z"/>
		<path d="M119.3,19.5L119.3,19.5C119.3,19.6,119.3,19.6,119.3,19.5z"/>
		<path d="M120.4,19.6c-0.2-0.1-0.4-0.2-0.6-0.3c-0.8-0.4-1.7-0.7-2.6-0.8c-0.4,0-0.2,0.8,0.1,0.5c1,0.2,2,0.6,2.9,1.1
			C120.4,20.2,120.7,19.8,120.4,19.6z"/>
		<path d="M115.5,18.9c-0.1-0.1-0.1-0.1-0.3-0.1c-0.4,0.2,0.5,1,0.7,1.3c0.6,0.6,1.3,0.9,2,1.2c0.8,0.3,1.6,0.5,2.4,0.6
			c0.1,0,0.2-0.1,0.2-0.2c0.1-0.1-0.1-0.2-0.2-0.2l0,0c-0.9-0.1-1.9-0.3-2.7-0.8l0,0c-0.4-0.2-0.8-0.4-1.2-0.7
			C116.1,19.8,115.7,19.4,115.5,18.9z"/>
		<path d="M117.6,20.7L117.6,20.7L117.6,20.7z"/>
		<path d="M117,19.3c-0.1-0.1-0.2,0-0.3,0.1c-0.1,0.3,0.3,0.3,0.6,0.4c0.5,0.2,1,0.3,1.5,0.6c0.1,0.1,0.2,0,0.3-0.1
			c0.1-0.3-0.3-0.3-0.6-0.4C118,19.7,117.5,19.5,117,19.3z"/>
		<path d="M118.2,23.5c-0.3,0-0.7,0-1-0.1l0,0c-0.6-0.1-1.1-0.3-1.7-0.5c0.1,0,0,0,0,0c-0.3-0.1-0.6-0.3-0.8-0.4
			c-0.2-0.2-0.4,0.2-0.2,0.3c1.1,0.6,2.4,1,3.6,1C118.5,24,118.5,23.5,118.2,23.5z"/>
		<path d="M114.8,23.9c0.1,0.1,0.3,0.2,0.5,0.3c0.6,0.3,1.1,0.6,1.7,0.8c0.1,0.1,0.2,0,0.3-0.1c0.1-0.3-0.4-0.3-0.6-0.5
			c-0.6-0.2-1.1-0.5-1.7-0.8C114.7,23.4,114.5,23.9,114.8,23.9z"/>
		<path d="M129,18.5c0.1-0.1,0-0.3-0.1-0.3c-0.4-0.1-0.8-0.2-1.2-0.3c-1.4-0.3-2.9-0.4-4.3,0c-0.1,0.1-0.1,0.1-0.1,0.3
			c0,0.1,0.1,0.2,0.3,0.1c0.3-0.1,0.7-0.1,1.1-0.2c0.8-0.1,1.7,0,2.4,0.1l0,0c0.6,0.1,1.1,0.3,1.7,0.4
			C128.8,18.7,128.9,18.6,129,18.5z"/>
		<path d="M123.2,17.1c-0.3,0.1-0.2,0.5,0.1,0.4c0.5-0.1,1-0.2,1.5-0.2s1.1,0.1,1.7,0.1c0.1,0,0.1,0,0.1-0.1
			C127.3,16.5,123.5,16.9,123.2,17.1z"/>
		<path d="M129.6,20.6c-0.4-0.1-3.5-0.6-3.4,0.1c0.1,0.3,0.5,0.1,0.8,0.1c0.6-0.1,1.3-0.1,1.9,0.1h-0.1c0.3,0,0.5,0.1,0.7,0.1
			C129.7,21.1,129.9,20.7,129.6,20.6z"/>
		<path d="M126.8,21.7c0.4,0,0.9,0,1.3,0.1h-0.1c0.1,0,0.3,0,0.4,0.1c0.3,0.1,0.4-0.3,0.1-0.4c-0.7-0.1-1.4-0.3-2-0.1
			C126.5,21.5,126.5,21.8,126.8,21.7z"/>
		<path d="M131.3,23c0-0.1-0.1,0-0.1,0c-0.6,0.2-1.1,0.4-1.7,0.6l0,0h-0.1l0,0c-1,0.3-2.1,0.8-3.2,1c-0.3,0-0.5,0-0.8,0
			c-0.1,0-0.2,0.1-0.2,0.2c0.3,1,5.3-1.2,6.1-1.5C131.5,23.2,131.5,23,131.3,23z"/>
		<path d="M126.5,23.8c-0.1,0-0.1,0.2-0.1,0.3c0.2,0.3,0.6-0.1,0.8-0.1c0.5-0.1,1-0.3,1.4-0.7c0.2-0.2-0.1-0.6-0.3-0.3
			c-0.1,0.1-0.1,0.1-0.1,0.1l0,0C127.8,23.4,127.1,23.5,126.5,23.8z"/>
		<path d="M130,22.4c0-0.3-0.5-0.2-0.8-0.3c-0.7,0-1.3-0.1-2-0.1c-0.1,0-0.2,0.1-0.2,0.2c0,0.4,0.5,0.2,0.8,0.3c0.7,0,1.3,0.1,2,0.1
			C129.9,22.7,130,22.6,130,22.4z"/>
		<path d="M132.7,29.9L132.7,29.9L132.7,29.9z"/>
		<path d="M132.7,29.9L132.7,29.9L132.7,29.9z"/>
		<path d="M136.1,31.4c0-0.2-0.2-0.2-0.3-0.3c-0.8-0.3-1.6-0.6-2.4-0.9c-2-0.8-3.7-2.1-5.4-3.2c-0.1-0.1-0.2,0-0.3,0.1
			c-0.1,0.2,0.1,0.3,0.3,0.4c0.5,0.3,1,0.7,1.5,1c1.9,1.3,4,2.3,6.2,3c0.1,0.1,0.2,0.1,0.3,0.1C136,31.5,136.1,31.5,136.1,31.4z"/>
		<path d="M132.7,29.9L132.7,29.9L132.7,29.9z"/>
		<path d="M133,28.7c-0.1-0.1-0.3-0.1-0.6-0.3c-0.7-0.3-1.3-0.6-1.9-1c-0.5-0.3-0.9-0.8-1.5-0.8c-0.3-0.1-0.3,0.4-0.1,0.4l0,0
			c0.1,0,0.1,0.1,0.2,0.1l0,0c1.1,0.7,2.2,1.5,3.5,2C132.9,29.1,133.2,28.8,133,28.7z M129.1,26.9L129.1,26.9
			C129.1,26.9,129.2,26.9,129.1,26.9z M132.3,28.3L132.3,28.3L132.3,28.3z"/>
		<path d="M129.3,27L129.3,27L129.3,27z"/>
		<path d="M130.7,26.1c-0.2-0.1-0.3,0.2-0.3,0.3c0.1,0.1,0.3,0.2,0.4,0.3l0,0c0.5,0.3,1.1,0.5,1.6,0.8l0,0c0.1,0.1,0.2,0.2,0.3,0.1
			C133.5,27.1,131,26.4,130.7,26.1z M132.4,27.5L132.4,27.5L132.4,27.5z"/>
		<path d="M132.5,27.6L132.5,27.6L132.5,27.6L132.5,27.6z"/>
		<path d="M123.5,28.6C123.5,28.7,123.5,28.7,123.5,28.6C123.5,28.7,123.5,28.7,123.5,28.6z"/>
		<path d="M123.5,28.6L123.5,28.6L123.5,28.6z"/>
		<path d="M122.8,29.2C122.8,29.2,122.8,29.2,122.8,29.2L122.8,29.2z"/>
		<path d="M124.4,30.1c-0.2-0.2-2-2.2-2-1.3c0.1,0.2,0.4,0.3,0.6,0.5c0.6,0.4,1,1,1.5,1.5c0.1,0.1,0.3,0.1,0.3,0
			C125,30.6,124.5,30.3,124.4,30.1z"/>
		<path d="M122.8,29.1C122.8,29.2,122.8,29.1,122.8,29.1S122.8,29.2,122.8,29.1z"/>
		<path d="M122.5,29.9c0.4,0.4,0.8,0.8,1.3,1.3c0.1,0.1,0.3,0.1,0.3,0c0.1-0.1,0.1-0.3,0-0.3c-0.4-0.4-0.8-0.8-1.3-1.3
			C122.6,29.4,122.3,29.7,122.5,29.9z"/>
		<path d="M118.1,30.1c-0.1-0.4-0.3-0.8-0.6-1.3c0-0.1-0.1-0.1-0.3-0.1c-0.1,0-0.1,0.1-0.1,0.3c0.1,0.4,0.3,0.8,0.6,1.3
			c0,0.1,0.2,0.1,0.3,0.1C118.1,30.3,118.1,30.2,118.1,30.1z"/>
		<path d="M127.1,36c0.1,0,0.2-0.1,0.2-0.2c0-0.3-0.8-0.1-1-0.3h0.1c-0.5-0.1-1-0.2-1.4-0.4l0,0c-0.6-0.3-1.2-0.6-1.7-1
			c-0.3-0.1-0.8-0.6-1-0.9c-0.2-0.2-0.6,0.1-0.3,0.3C123.2,34.9,125,36.1,127.1,36z"/>
		<path d="M124.4,33.8c-0.1-0.1-0.3-0.1-0.5-0.2c-0.2-0.1-0.5-0.3-0.6-0.3c-0.2-0.1-0.4-0.3-0.6-0.5c-0.2-0.2-0.6,0.1-0.3,0.3
			c0.5,0.4,1.1,1.1,1.8,1C124.4,34,124.4,33.9,124.4,33.8z"/>
		<path d="M143.8,24.2L143.8,24.2c-0.5,0.6-1.1,1.2-1.7,1.7c0.1-0.1,0.1-0.1,0.1-0.1c-0.7,0.5-1.5,0.9-2.2,1.2
			c-0.3,0.1-0.6,0.3-1,0.3c-0.1,0.1-0.1,0.1-0.1,0.3c0.1,0.6,2.7-0.8,2.9-1c1.2-0.7,2.2-1.7,3-2.8c0.1-0.1,0-0.2-0.1-0.3
			c-0.3-0.1-0.4,0.3-0.6,0.5C144,24.1,144,24.1,143.8,24.2z"/>
		<path d="M141.5,24.8c0,0-0.1,0-0.1,0.1c-0.6,0.6-1.4,0.9-2.2,1.3c-0.3,0.1-0.6,0.1-0.9,0.2c-0.2,0.1-0.2,0.3-0.1,0.4
			c1,0,2-0.7,2.9-1.2C141.3,25.4,142.1,25,141.5,24.8z"/>
		<path d="M139.4,24.7c0.2-0.2-0.1-0.6-0.3-0.3c-0.8,0.6-2,0.5-3,0.3h0.1c-0.2,0-0.5-0.1-0.7-0.1c-0.1,0-0.2,0.1-0.2,0.2
			c0,0.3,0.4,0.2,0.6,0.3l0,0c1,0.2,2,0.2,3-0.1C139.1,25,139.3,24.8,139.4,24.7z"/>
		<path d="M139,22.7c-0.1-0.1-0.3,0-0.4,0c-0.7,0.1-1.4,0-2.1,0.2c-0.2,0.1-0.2,0.3-0.1,0.4c0.2,0.1,0.5-0.1,0.7-0.1h-0.1
			c0.6,0,1.2,0,1.8-0.1C139.1,23.2,139.1,23,139,22.7z"/>
		<path d="M141.6,18.6c-0.7-0.5-1.4-1-2.2-1.3c-0.3-0.1-0.4,0.3,0.1,0.5l0,0c0.7,0.3,1.3,0.9,2,1.3c0.1,0.1,0.2,0.2,0.3,0.1
			C142.2,19,141.8,18.7,141.6,18.6z"/>
		<path d="M138.7,18.1c-0.1-0.1-0.5-0.3-0.6,0c-0.1,0.1,0.1,0.3,0.3,0.3c0.2,0.1,0.4,0.2,0.6,0.3c0.3,0.1,1,0.5,1.5,0.8
			c0.2,0.4,0.9-0.1,0-0.5C139.9,18.6,139.2,18.3,138.7,18.1z M140.8,19.2L140.8,19.2L140.8,19.2L140.8,19.2z M140.5,19.5L140.5,19.5
			L140.5,19.5z M138.2,18.3L138.2,18.3L138.2,18.3z M138.4,18.2L138.4,18.2L138.4,18.2z M138.5,18.1L138.5,18.1L138.5,18.1
			L138.5,18.1z"/>
		<path d="M136.6,18.8c-0.1-0.1-0.2,0-0.3,0.1s0,0.2,0.1,0.3c0.7,0.3,1.4,0.6,2.1,0.8c0.3,0,2,0.4,1.6-0.3c0,0-0.1-0.1-0.1-0.1
			c-0.4,0-0.8,0-1-0.1l0,0C138.1,19.4,137.3,19.1,136.6,18.8z"/>
		<path d="M142.4,11.4c0.2-0.2-0.1-0.6-0.3-0.3c-1,1-2.2,2-3.4,2.9c0.1-0.1,0.1-0.1,0.1-0.1c-1.3,0.9-2.7,1.7-4.2,2.2
			c-0.4,0.2-0.9,0.3-1.4,0.4c-0.1,0.1-0.1,0.1-0.1,0.3c0.1,0.2,0.3,0.1,0.6,0.1c2.1-0.5,4-1.5,5.7-2.9
			C140.4,13.2,141.5,12.3,142.4,11.4z"/>
		<path d="M137.5,13.4c-0.2,0.1-0.3,0.2-0.6,0.3c-1,0.6-2.2,1.1-3.3,1.4c-0.2,0.1-0.1,0.5,0.1,0.4c1.4-0.3,2.7-1,4-1.7
			C137.9,13.7,137.7,13.3,137.5,13.4z"/>
		<path d="M136.7,12.8c-0.3-0.1-1.5,0.6-1.9,0.7c-0.3,0.1-0.1,0.6,0.2,0.4c0.5-0.3,1-0.5,1.6-0.7C136.9,13.1,136.9,12.9,136.7,12.8z
			"/>
		<path d="M136.5,8.7c-0.4,0.1-0.1,0.8,0.2,0.4c0.8-0.3,1.5-0.4,2.4-0.6c0.3-0.1,0.6-0.1,1,0c0.1,0,0.1,0,0.1-0.1
			C140.8,7.5,136.8,8.5,136.5,8.7z"/>
		<path d="M139.1,7c-0.1-0.1-0.4,0-0.6,0c-0.3,0.1-1.7,0.2-1.6,0.6c0,0.1,0.1,0.2,0.3,0.1c0.6-0.2,1-0.3,1.6-0.3
			c0.1,0,0.3,0,0.4-0.1C139.2,7.2,139.2,7,139.1,7z"/>
		<path d="M136.2,9.8c0,0.1,0.1,0.1,0.3,0.1c0.3-0.1,0.7-0.1,1-0.2c0.3-0.1,0.1-0.5-0.1-0.4C137.1,9.3,136,9.4,136.2,9.8z"/>
		<path d="M147.9,12c-0.6-0.3-1.1-0.5-1.7-0.6c-0.3-0.1-0.4,0.3-0.1,0.4c0.4,0.1,1.1,0.3,1.4,0.5c0.8,0.3,1.5,0.8,2.2,1.4
			c0,0.1,0.2,0.2,0.3,0.2C151,13.7,148.2,12.1,147.9,12z"/>
		<path d="M149.3,13.4L149.3,13.4L149.3,13.4z"/>
		<path d="M149.3,13.4L149.3,13.4L149.3,13.4z"/>
		<path d="M145.9,12.6c0.4-0.1,0.8,0.1,1.1,0.3c0.1,0,0.4,0.2,0.6,0.3c0.2,0.2,0.5-0.2,0.2-0.3c-0.6-0.3-1.1-0.6-1.7-0.7
			C145.7,12.1,145.5,12.4,145.9,12.6z M146.1,12.6C146,12.6,146.1,12.6,146.1,12.6S146,12.6,146.1,12.6z"/>
		<path d="M145.5,13.1c-0.3-0.1-0.3,0.4,0,0.4c0.1,0,0.3,0.1,0.5,0.1h-0.1c0.3,0,1,0.5,1-0.1C146.8,13.2,145.9,13.1,145.5,13.1z"/>
		<path d="M146.6,13.7L146.6,13.7C146.6,13.7,146.6,13.7,146.6,13.7z"/>
		<path d="M150,17.6c0.2-0.3-1-0.8-1.3-0.9c-0.7-0.3-1.5-0.6-2.2-0.6c-0.8-0.1-1.5-0.1-2.3,0.1c-0.1,0.1-0.1,0.1-0.1,0.3
			c0.1,0.3,0.6,0.1,0.8,0.1h-0.1c0.7-0.1,1.3-0.1,2,0.1h-0.1c0.6,0.1,1.3,0.3,1.9,0.6l0,0c0.3,0.1,0.6,0.3,1,0.6
			C149.8,17.8,150,17.8,150,17.6z"/>
		<path d="M148.7,17.2L148.7,17.2L148.7,17.2z"/>
		<path d="M145,17.6c0.1,0.3,0.5,0.1,0.7,0.1h-0.1c0.5-0.1,1,0,1.5,0.1c0.1,0,0.3-0.2,0.2-0.3c-0.3-0.3-1.6-0.2-2.1-0.1
			C145.1,17.2,145,17.4,145,17.6z M146.9,17.6L146.9,17.6L146.9,17.6z"/>
		<path d="M146.8,19c0.2,0.1,0.6-0.1,0.8-0.1c0.3-0.1,0.8,0.1,0.8-0.2c0-0.5-1.3-0.2-1.6-0.1C146.6,18.6,146.6,18.9,146.8,19z"/>
		<path d="M142.3,29.7c0.5,0.1,0.9,0.3,1.4,0.3c1.7,0.3,3.6,0.4,5-0.6c0.3-0.1,0-0.6-0.2-0.4c-1.3,0.8-2.8,0.8-4.3,0.6l0,0
			c-0.6-0.1-1.2-0.3-1.8-0.4C142.2,29.2,142,29.6,142.3,29.7z"/>
		<path d="M144.7,28.9L144.7,28.9L144.7,28.9z"/>
		<path d="M144.7,28.9L144.7,28.9c-0.2,0-0.7-0.3-0.8,0c-0.1,0.1,0,0.3,0.1,0.3c0.7,0.1,1.4,0.2,2.1,0.3c0.1,0,0.2-0.1,0.2-0.2
			c0-0.1-0.1-0.2-0.2-0.2C145.6,29,145.1,29,144.7,28.9z"/>
		<path d="M146.4,27.9c-0.1,0.1-0.3,0-0.6,0h0.1c-0.1-0.1-0.3-0.1-0.6-0.2l0,0c-0.1,0-0.2-0.1-0.3-0.1c-0.2-0.2-0.5,0.2-0.2,0.3
			c0.5,0.3,1.2,0.6,1.7,0.3C146.8,28.1,146.6,27.9,146.4,27.9z"/>
		<path d="M145.4,27.7L145.4,27.7C145.4,27.7,145.3,27.7,145.4,27.7z"/>
		<path d="M146.7,26.9C146.7,26.9,146.7,26.9,146.7,26.9C146.7,26.9,146.7,26.9,146.7,26.9z"/>
		<path d="M146.7,26.9L146.7,26.9L146.7,26.9z"/>
		<path d="M148.1,32.3c0-0.1-0.1,0-0.1,0c-0.4,0.3-0.8,0.5-1.3,0.7c-0.8,0.3-1.7,0.5-2.7,0.4c-0.1,0-0.2,0.1-0.2,0.2
			c0,0.4,0.9,0.2,1.2,0.2c1.2-0.1,2.3-0.4,3.3-1.1C148.4,32.7,148.4,32.4,148.1,32.3z"/>
		<path d="M145.6,32.4c-0.3,0-0.6,0.2-1,0.2c-0.2,0.1-0.6-0.1-0.7,0.2c0,0.6,1.5,0.1,1.7,0C145.9,32.8,145.9,32.5,145.6,32.4z"/>
		<path d="M133.2,33.6c0.7,0.1,1.4,0.1,2.1,0.1c0.1,0,0.2-0.1,0.2-0.2c0-0.4-0.6-0.2-0.8-0.3c-0.8-0.1-1.5-0.1-2.3-0.2h0.1
			c-0.6-0.1-1.3-0.2-1.8-0.5c-0.2-0.1-0.5-0.4-0.7-0.1C129.5,33,132.7,33.6,133.2,33.6z"/>
		<path d="M130.6,33.9c0.6,0.3,1.4,0.6,2.2,0.4c0.2-0.1,0.2-0.3,0.1-0.4c-0.3-0.1-0.8,0-1.1-0.1h0.1c-0.3,0-0.6-0.1-0.8-0.2
			c-0.1,0-0.1-0.1-0.2-0.1C130.6,33.4,130.4,33.8,130.6,33.9z"/>
		<path d="M131.1,33.6L131.1,33.6L131.1,33.6z"/>
		<path d="M133.2,39.1c-0.2,0-0.5,0-0.8-0.1h0.1c-0.8-0.2-1.5-0.5-2.2-1l0,0l0,0c-0.1-0.1-0.5-0.3-0.6,0c0.1,0.3,0.6,0.5,0.8,0.7
			c0.8,0.5,1.8,0.8,2.8,0.8C133.6,39.6,133.6,39.1,133.2,39.1z"/>
		<path d="M129.5,38.5c-0.1-0.1-0.3-0.5-0.6-0.3c-0.1,0.1-0.1,0.3,0,0.3c0.3,0.1,0.8,0.8,1,0.5C130.1,38.8,129.7,38.7,129.5,38.5z"
			/>
		<path d="M134.1,37.3L134.1,37.3L134.1,37.3z"/>
		<path d="M133.5,37.1C133.5,37,133.5,37.1,133.5,37.1S133.5,37,133.5,37.1z"/>
		<path d="M133.5,37.1L133.5,37.1L133.5,37.1z"/>
		<path d="M135.9,37.1c-0.6,0.1-1.3,0.2-1.9,0.1l0,0c-0.2,0-0.3-0.1-0.6-0.1c-0.3-0.2-0.6,0.1-0.3,0.3c0.8,0.5,1.9,0.3,2.9,0.2
			C136.3,37.5,136.2,37.1,135.9,37.1z"/>
		<path d="M153,21.3L153,21.3L153,21.3z"/>
		<path d="M153,21.3C153,21.3,153,21.3,153,21.3C153,21.3,153,21.3,153,21.3z"/>
		<path d="M151.5,21.8c0.1-0.4-1.4-0.2-1.7-0.2c-0.1,0-0.1,0.1-0.1,0.3c0.1,0.2,0.3,0.1,0.5,0.1h-0.1c0.3-0.1,0.8-0.1,1.2,0
			C151.4,22,151.6,21.8,151.5,21.8z"/>
		<path d="M155.3,25.4L155.3,25.4L155.3,25.4z"/>
		<path d="M154.4,24.6C154.4,24.5,154.4,24.6,154.4,24.6L154.4,24.6C154.4,24.5,154.4,24.5,154.4,24.6z"/>
	</g>
</g>
<g>
	<path d="M27.8,14.2h0.4c1.2,0,1.9,0.6,1.9,1.7l-1.4,12.8h0.1c1.9,0,2.9-0.2,2.9-0.7c0.1-0.4,0.1-0.9,0.2-1.6c0-0.2-0.1-0.3-0.1-0.5
		v-0.3c0-0.4,0.6-0.7,1.9-0.7c0.3,0,0.4,0.4,0.4,1.1l0.2,9.4c0,0.6-0.3,0.9-0.8,0.9c-2-0.3-3.7-0.5-5-0.5c-1.6,0-3.2,0.2-5,0.6
		c-0.5,0-0.8-0.5-0.8-1.4v-2.9c0-0.1,0-0.2,0.1-0.2c0-0.1-0.1-0.2-0.1-0.2v-0.2c0,0,0-0.1,0.1-0.1c0,0,0-0.1-0.1-0.1
		c0.1-1.5,0.1-3.8,0.1-6.8v-2c-0.2-4.3-0.3-6.7-0.3-7.3c0.2-0.4,0.5-0.7,0.9-0.7h0.3C24,14.5,25.4,14.4,27.8,14.2z"/>
	<path d="M45,13.8h0.5c2,0.1,3,0.6,3.1,1.2c0,0.3,0.3,3.1,0.8,8.2c0,0.7,0.1,1.4,0.1,1.9c0,5.3-2.1,8.9-6.3,10.8
		c-0.8,0.3-2.2,0.7-4.3,1.1c-0.9,0-1.4-0.5-1.5-1.6v-0.1c0.1-1.2,0.1-1.8,0.1-1.9v-0.2c0-0.6-0.4-2.6-1.1-6.1c-0.2-1-0.3-2-0.3-3.1
		c0-5,2.2-8.2,6.7-9.8C43.6,13.9,44.3,13.8,45,13.8z M41.6,18.4c-0.4,1-0.7,2.5-0.7,4.4c0,3,0.9,6.3,2.6,9.9v0.1h0.1
		c0.7-1.5,1.1-3.1,1.1-4.6c0-3.2-0.9-6.3-2.8-9.2C41.7,18.7,41.6,18.5,41.6,18.4L41.6,18.4z"/>
	<path d="M56.7,14.2H57c1.2,0,1.9,0.6,1.9,1.7l-1.4,12.8h0.1c1.9,0,2.9-0.2,2.9-0.7c0.1-0.4,0.1-0.9,0.2-1.6c0-0.2-0.1-0.3-0.1-0.5
		v-0.3c0-0.4,0.6-0.7,1.9-0.7c0.3,0,0.4,0.4,0.4,1.1l0.2,9.4c0,0.6-0.3,0.9-0.8,0.9c-2-0.3-3.7-0.5-5-0.5c-1.6,0-3.2,0.2-5,0.6
		c-0.5,0-0.8-0.5-0.8-1.4v-2.9c0-0.1,0-0.2,0.1-0.2c0-0.1-0.1-0.2-0.1-0.2v-0.2c0,0,0-0.1,0.1-0.1c0,0,0-0.1-0.1-0.1
		c0.1-1.5,0.1-3.8,0.1-6.8v-2c-0.2-4.3-0.3-6.7-0.3-7.3c0.2-0.4,0.5-0.7,0.9-0.7h0.3C52.9,14.5,54.3,14.4,56.7,14.2z"/>
	<path d="M77,14.7c0.3,0,0.6,0.2,0.8,0.7l-0.1,0.3v0.7c1,3.6,1.4,6.1,1.4,7.4c0.1,0.6,0.3,2.6,0.7,5.9c0.2,0.8,0.4,2.6,0.7,5.5
		c-0.1,0.5-0.4,0.8-0.7,0.8c-0.9-0.2-1.6-0.3-2.3-0.3l-3.1,0.4c-0.4-0.1-0.6-0.4-0.6-0.8c0-1.1-0.3-2.2-1-3.2
		c-0.5,0-0.7,0.4-0.7,1.2C71.7,35,71.3,36,70.7,36c-0.1,0-0.2,0-0.2,0.1c0,0-0.1,0-0.2-0.1c-0.2,0-1.7,0.1-4.4,0.2
		c-0.4,0-0.7-0.2-0.9-0.6c0-0.7,0.1-1.2,0.1-1.5V32c0-3.3,0.6-7.6,1.8-12.9l0.2-1.3c-0.1-1-0.2-1.7-0.2-2.1c0.1-0.6,0.4-0.8,0.8-0.8
		c1.3,0.3,2.5,0.4,3.5,0.4h1.8C74.4,15.3,75.8,15.1,77,14.7z M73,18.5c-0.9,4.4-1.3,7.3-1.3,8.7c1-1.1,1.9-1.9,2.7-2.4
		C74.3,24.5,73.9,22.4,73,18.5L73,18.5z"/>
	<path d="M179.3,14.3c0.4,0,0.6,0.3,0.7,0.9c0,4.1,0.3,7.7,0.9,10.9v0.2c0,0.9-2.6,2.1-7.8,3.7c-0.2,0.2-0.2,0.4-0.2,0.6V31
		c0,1,0.2,2.5,0.5,4.5v0.1c0,0.4-0.9,0.6-2.8,0.6h-1.9c-0.5,0-0.7-0.3-0.7-0.8c-0.1-2.8-0.2-4.6-0.3-5.2h0.1l-0.1-0.1
		c-0.4-8.5-0.5-13.1-0.5-13.8c0.1-0.8,0.5-1.1,1.1-1.1l3.2,0.2C173.4,15.3,176,15,179.3,14.3L179.3,14.3z M173.5,19l-0.3,7.6
		c1.6-0.8,2.3-1.3,2.3-1.6C175.3,24.1,174.7,22.1,173.5,19L173.5,19z"/>
	<path d="M194.7,15c0.3,0.2,0.5,0.4,0.5,0.5c0,2.7-0.1,4.8-0.1,6.4v2.3c0,0.9-0.2,1.3-0.7,1.3c0,0-0.6,0.2-1.8,0.6
		c-0.6,0-0.9-0.8-0.9-2.4c0-0.2-0.8-0.4-2.5-0.5c-0.1,0.4-0.2,0.8-0.2,1.2v1c0,0.2,0.5,0.3,1.5,0.4c0.4,0.2,0.5,0.5,0.5,0.9
		c-0.1,0.5-0.9,0.9-2.2,1c-0.3,0.3-0.4,0.9-0.4,1.8c0,0.2,0.4,0.4,1.3,0.4c0.9,0,1.6,0,2.1,0.1c0.1-1.6,0.5-2.4,1.1-2.4
		c0,0,0.1,0,0.2-0.1c1.4,0.2,2.1,0.7,2.1,1.6c-0.1,1.1-0.1,1.8-0.1,2c0,0.4,0,1.6,0.1,3.5c-0.1,0.8-0.4,1.2-1,1.2h-0.4
		c-0.5,0-1.3,0-2.4,0.1c-2.4,0-3.9-0.1-4.4-0.1c-1.6,0.2-2.5,0.2-2.8,0.2h-0.5c-0.7-0.1-1-0.4-1-0.9c0.2-1.3,0.2-2.2,0.2-2.9v-0.3
		c0-0.7-0.1-3.9-0.2-9.5c0.1-4.6,0.3-6.9,0.7-6.9c0-0.3,1.8-0.4,5.3-0.4C189.2,15.3,191.3,15.2,194.7,15z"/>
	<path d="M200.9,14.4c3,0.2,4.8,0.4,5.4,0.7c0.2,0,0.3,0.1,0.4,0.4c-2.2,5.1-3.3,7.9-3.3,8.4c0.2,0.1,0.9,0.4,2.2,0.9
		c1.3,0.6,2,1.1,2,1.5v0.2c0,0.2-1.1,2.3-3.3,6.3c-1.6,3.1-2.6,4.7-3,4.7c0,0.1-0.2,0.1-0.5,0.1c-3-0.4-4.5-0.9-4.5-1.5v0
		c0-0.2,0.7-1.5,2.1-3.9c1.4-2.4,2.1-3.7,2.1-4c-2.4-0.9-3.6-1.6-3.6-2.2v-0.1c0-0.4,0.7-2.4,2-6.2c0.8-2.8,1.2-4.5,1.5-5
		L200.9,14.4z"/>
	<path d="M217.1,13.6h0.7c2.7,0.2,4.1,0.6,4.1,1.1l0.1,0.4v0.2c-0.2,3.6-0.5,5.5-0.8,5.9c-0.5,0.9-1.5,2.2-3.1,4
		c-0.1,0.1-0.2,0.1-0.4,0.1h-0.1c-0.2-0.1-0.3-0.3-0.3-0.5v-0.3c0.1-1.6,0.1-2.4,0.1-2.5c0-0.4-0.5-0.6-1.4-0.6h-0.7
		c0,2.1,0.3,4.4,0.8,7c0.2,0.7,0.5,1.3,0.9,1.8h0.1c1.2-2.5,2.6-5,4.3-7.7h0.1c0.3,0,0.4,0.1,0.4,0.4c0,0,0,0.3-0.1,0.8
		c0,0.5,0.1,1.8,0.2,4v1c0,2.4-1.5,4.6-4.4,6.8c-1,0.7-1.8,1-2.4,1.1c-1.4,0-2.9-1.1-4.6-3.2c-1.4-2.1-2.2-4.8-2.2-8.1
		c0-5,1.7-8.6,5.1-10.7C214.9,13.9,216,13.6,217.1,13.6z"/>
	<path d="M235.9,14.7c0.3,0,0.6,0.2,0.8,0.7l-0.1,0.3v0.7c1,3.6,1.4,6.1,1.4,7.4c0.1,0.6,0.3,2.6,0.7,5.9c0.2,0.8,0.4,2.6,0.7,5.5
		c-0.1,0.5-0.4,0.8-0.7,0.8c-0.9-0.2-1.6-0.3-2.3-0.3l-3.1,0.4c-0.4-0.1-0.6-0.4-0.6-0.8c0-1.1-0.3-2.2-1-3.2
		c-0.5,0-0.7,0.4-0.7,1.2c-0.4,1.8-0.9,2.8-1.4,2.8c-0.1,0-0.2,0-0.2,0.1c0,0-0.1,0-0.2-0.1c-0.2,0-1.7,0.1-4.4,0.2
		c-0.4,0-0.7-0.2-0.9-0.6c0-0.7,0.1-1.2,0.1-1.5V32c0-3.3,0.6-7.6,1.8-12.9l0.2-1.3c-0.1-1-0.2-1.7-0.2-2.1c0.1-0.6,0.4-0.8,0.8-0.8
		c1.3,0.3,2.5,0.4,3.5,0.4h1.8C233.3,15.3,234.7,15.1,235.9,14.7z M231.9,18.5c-0.9,4.4-1.3,7.3-1.3,8.7c1-1.1,1.9-1.9,2.7-2.4
		C233.3,24.5,232.8,22.4,231.9,18.5L231.9,18.5z"/>
</g>
</svg>
