<?xml version="1.0" encoding="utf-8"?>
<!-- Generator: Adobe Illustrator 25.4.1, SVG Export Plug-In . SVG Version: 6.00 Build 0)  -->
<svg version="1.1" id="Capa_1" xmlns="http://www.w3.org/2000/svg" xmlns:xlink="http://www.w3.org/1999/xlink" x="0px" y="0px"
	 width="250px" height="50px" viewBox="0 0 250 50" style="enable-background:new 0 0 250 50;" xml:space="preserve">
<style type="text/css">
	.st0{fill:#FFFFFF;}
	.st1{fill:#333333;stroke:#FFFFFF;stroke-width:0.2835;stroke-miterlimit:10;}
</style>
<g>
	<path class="st0" d="M90.4,35.4l3.6,8.1h3.5c-0.2-0.6-0.3-1.2-0.3-1.8c0-3.2,2.6-5.9,5.9-5.9c3.2,0,5.9,2.6,5.9,5.9
		c0,0.6-0.1,1.2-0.3,1.7l26.8-0.1l0.5-0.1c-0.1-0.3-0.1-0.6-0.1-1c0-2.9,2.4-5.2,5.2-5.2s5.2,2.4,5.2,5.2c0,0.3,0,0.5-0.1,0.8h2.9
		l0.4-9.4l5.3-4.3l4-7.2l-5.1-4l-0.5-3.4l-8.5-7L139,6.2l-2.6,0.3l-0.9-2.8l-5.7,0.8L126,6l-1.3-1.9l-8.2,2.4l-7.6,10.6
		c-0.1,0-16.1,1.5-16.1,1.5l4.1,9.1L90.4,35.4z"/>
	<circle cx="141.2" cy="42.5" r="5"/>
	<circle class="st0" cx="141.2" cy="42.5" r="1.3"/>
	<circle cx="103.1" cy="42.5" r="5"/>
	<circle class="st0" cx="103.1" cy="42.5" r="1.3"/>
	<g>
		<path d="M118.2,8.5c0,0.2,0.3,0.2,0.4,0.1c0.1-0.1,0.5-0.5,0.7-0.6c-0.1,0.1,0,0,0,0c0.4-0.2,0.8-0.4,1.3-0.6h-0.1
			c0.5-0.1,1-0.3,1.5-0.3c0.3,0,0.2-0.5-0.1-0.4c-0.8,0.1-1.7,0.3-2.5,0.8C119.1,7.6,118.2,8,118.2,8.5z"/>
		<path d="M114.5,43.8h0.6H114.5z"/>
		<path d="M108.8,43.4c-0.1,0.2-0.1,0.2-0.2,0.4c5,0.4,22.1,0,27.4-0.1c-0.1-0.3-0.1-0.6-0.1-0.9c-4.2,0.5-23,0.1-27,0.3
			c0-0.1,0,0,0,0L108.8,43.4z"/>
		<path d="M90.1,35.2c0.9,2.2,2.9,6.5,3.8,8.6h3.8c-0.1-0.3-0.1-0.6-0.2-0.8h-3.1c-0.8-1.9-2.6-5.7-3.3-7.6l6.5-7.6l-4.2-8.7
			l15.9-1.7l4.1-5.7c0.1,1.5,0.8,3.1,2,4.2c-1.3,0.3-2.4,1.2-3,2.5l-3.8,0.3l3,18.1l7.5,5l7-0.3l-0.7-2.8c2.9,2.2,6.9,3.6,10.6,2.7
			c0.1-0.8,0.4-1.6,0.9-2.3c-3.3,1.7-7.2,0.5-10.3-1.1c1.3,0.1,2.5-0.1,3.7-0.4c0.8,0.6,1.7,1,2.7,1.1c1,0.2,2.2,0.1,3.2-0.1
			c0.1,0,0.1-0.1,0-0.1c-1,0-2-0.3-2.9-0.8c-0.2-0.1-0.4-0.3-0.6-0.4c-0.4-0.3-0.6-0.6-0.9-0.8c2.7,0.9,5.6,0.7,8.1-0.3
			c-0.1,0.4-0.4,0.8-0.7,1.2c0.7-0.3,1.6-0.5,2.4-0.4c0.1-0.3,0.2-0.6,0.3-0.8c2,0.4,4.1,0.1,6-0.6c-0.6,1.3-1.5,2.4-2.8,3.1
			c0.4,0.5,0.8,1,1,1.5c1.2-0.7,2.2-1.7,3-2.8l-0.1,2.5h-1.3l-0.1,2.5h1.3v0.4h-2.4c0,0.3-0.1,0.6-0.1,0.8h3.3l0.1-1.3l3.1,0.1
			c0.7,0,1.3-0.6,1.3-1.3c0-0.6-0.6-1.3-1.3-1.3l-3.1-0.1l0.1-4.2c0.2-0.5,0.5-1.1,0.4-1.6c1.2-0.8,2.2-2,3-3.2
			c3.3-1.1,5.1-4.5,6.3-7.5c1-2.9-2.6-4.5-4.7-5.5c0.3-0.9,0-1.8-0.4-2.7c-1.5-3.1-4.4-5.2-7.5-6.6c1-1.9-4.2-2.9-5.4-3.1
			c-1.5-0.1-2.9-0.2-4.3,0c0.1-0.8,0.6-2.3-0.6-2.7c-3.5-0.5-7.2,0.1-10.2,2c0.2-0.8-0.1-1.5-1-1.5c-4.7-0.2-10.6,1.6-11.9,6.7
			l-4.7,6.6l-16.7,1.7l4.4,9.2L90.1,35.2z M135.3,4.8c-0.3,4.7-3.8,8.7-8.2,9.9c-0.4,0.2-0.8,0.1-1.3,0c1.5-0.3,2.7-1.1,3.8-2
			s2.2-1.8,3.2-2.9c0.5-0.6,0.9-1.1,1.3-1.7c0.2-0.2-0.2-0.4-0.3-0.2c-0.3,0.4-0.6,0.8-0.8,1.1c-1.3,1.5-2.9,2.8-4.4,4
			c0.1-0.1,0.1-0.1,0.1-0.1c-0.6,0.3-1.2,0.7-1.8,1c-0.4,0.1-0.8,0.3-1.3,0.3c-0.1,0.1-0.2,0.2-0.1,0.3c-0.8-0.1-1.6-0.1-2.4-0.1
			c2.7-2.8,5.9-5.6,9.1-7.3c-2.4,0.8-5,1.6-7.1,3c0.4-1,0.8-2,1-2.9c1.5-0.8,2.9-1.7,4.5-2.2C132.2,4.8,133.8,4.6,135.3,4.8z
			 M131.7,20.7c-2.4-1.5-5.4-2.3-8.3-1.7c-1-0.8-2.2-1.6-3.5-2.2c5-1.5,10.7,0,14.3,3.8c0.2,0.3-0.2,0.7-0.5,1
			c-2.9,2.8-6.9,3.9-10.8,4c0.8-0.4,1.5-0.9,2.4-1.3c0.4-0.2,0.9-0.4,1.3-0.7c0.3-0.3,0.6-1,0.1-1.4c-0.6-0.5-1-1.2-1.7-1.7
			c2.1-0.4,4.4-0.5,6.4,0.3C131.6,21,131.7,20.9,131.7,20.7z M143.9,22.4c-2.4-1.1-5.1-2.6-7.8-1.8c-0.1-0.9-0.8-1.7-1.4-2.2
			c1.5-0.1,3.1-0.6,4.5-1.3c1.5,0.8,3.1,1.5,4.5,2.6c1,0.8,3.4,2,2.4,3.6c-1.5,2.5-4.1,4.1-6.8,5.1c-2-1.6-4.3-2.7-6.7-3.4
			c0.7-0.4,1.4-0.9,2-1.5c0.4-0.1,0.8-0.3,1.3-0.6c2.5-1,5.4-1,8-0.2C144,22.6,144,22.4,143.9,22.4z M129.5,15.4L129.5,15.4
			L129.5,15.4C129.6,15.4,129.5,15.4,129.5,15.4z M144.9,8.7c-2,4.7-6.6,7.4-11.3,8.8c-0.6-0.4-1.2-0.8-1.8-1.1
			c2.7-3,6.2-5.7,10.1-6.7c0.1,0,0.1-0.3-0.1-0.3c-2.3,0.1-4.6,0.5-6.6,1.5c0.8-1.1,1.3-2.4,1.7-3.6c1.5-0.3,3-0.3,4.5,0
			C142.5,7.6,143.7,8,144.9,8.7z M152.1,18c-1.3,1-2.9,1.7-4.3,2.5c-1.5-1.7-3.5-3-5.5-4.1c2.8-0.7,5.9-0.7,8.6,0.6
			c0.1,0.1,0.3-0.1,0.1-0.2c-2.2-1.5-4.9-2.7-7.6-2.6c1.2-1.1,2.1-2.4,2.9-3.8c2.7,0.9,4.7,2.9,6.2,5.2
			C153.2,16.9,153.4,17.3,152.1,18z M150.4,24.6c1.7-0.6,3.6-1.2,5.4-1c0.1,0.1,0.1-0.1,0-0.1c-2.4-1-5.1-1.2-7.5-0.2
			c0.1-0.5,0.1-0.9,0.1-1.4c1-0.1,2-0.6,2.9-1c-0.1,0.4,0.5,0.3,0.7,0.3l0,0c0.6,0.1,1.1,0.3,1.6,0.6c0.1,0.1,0.2,0.1,0.3-0.1
			c0.3-0.6-1.9-1-2.2-1c0.5-0.3,0.9-0.5,1.3-0.8c-0.1,0.1-0.1,0.3,0.1,0.3c0.4,0.1,0.8,0.3,1.2,0.4c0.1,0.1,0.6,0.3,0.8,0.3l0,0
			c0.5,0.3,0.4,1,0.8,0.9c0.4-0.1-0.1-0.8-0.2-1c-0.6-0.6-1.7-1.1-2.5-1.1c0.2-0.1,0.3-0.2,0.6-0.3c0.8,0.3,4.3,2.2,4.2,3.1
			c-0.6,2.2-1.8,4.3-3.3,6.1c0.2-0.6,0.3-1.3,0.1-2c0.6-0.2,1.1-0.8,1.5-1.5c0.2-0.2-0.2-0.4-0.3-0.2c-0.1,0.2-0.3,0.4-0.4,0.6
			c-0.1,0.3-0.6,0.6-0.8,0.8c-0.2-0.3-0.4-0.5-0.6-0.5c0.1-0.1,0.2-0.2,0.3-0.3c-0.1,0.1-0.1,0.1-0.1,0.1c0.3-0.3,0.8-0.6,0.8-1
			c0-0.2-0.2-0.3-0.3-0.3c-0.2,0.1-0.1,0.3-0.3,0.4c0-0.1,0,0,0,0l0,0c-0.1,0.1-0.2,0.2-0.3,0.3c0.1-0.1,0.1-0.1,0.1-0.1
			c-0.2,0.1-0.6,0.3-0.6,0.6C152.6,24.9,151.5,24.7,150.4,24.6z M140.5,29.4c1.9-0.4,3.6-1.4,5.2-2.7c0.3,0.4,0.9,0.7,1.4,0.8
			c0.3,0.1,0.4-0.3,0.1-0.4c-0.2,0-0.3-0.1-0.5-0.1l0,0c-0.3-0.1-0.6-0.3-0.8-0.5l0.1-0.1c0.5,0.1,1-0.1,1.6-0.1
			c0.8,0,1.7,0.1,2.4,0.3c0.5,0.1,2.4,0.4,2.4,0.9c-1.2,4.5-5.7,7.3-10.3,7.3c0.9-0.5,1.6-1.2,0.8-2.2c2.9,0.1,5.7-1.3,7.7-3.3
			c0.1-0.1,0-0.3-0.1-0.2c-2.7,1.7-6.1,1.8-9.2,1.3C141.2,30.1,140.8,29.8,140.5,29.4z M128.6,31.1c2.6,1.3,5.5,1.7,8.4,1.5
			c0.1,0,0.1-0.1,0-0.1c-1-0.2-2.1-0.5-3.1-0.8c-2.7-1.1-5.3-2.7-7.4-4.7c1.3-0.1,2.6-0.4,3.8-0.9c4.4,0.9,8.2,3.7,10.9,7.3
			c-3.1,2.1-7,2.1-10.6,1.4C130,33.4,129.4,32.3,128.6,31.1z M121.8,34.4c-0.2-0.9-0.3-1.9-0.4-2.8c0.2,0.2,0.5,0.3,0.7,0.6
			c0.2,0.1,0.4-0.1,0.3-0.3c0.1,0.2,4.1,2.9,3.6,2c-2.5-1.7-4.2-4.3-5.5-7c0.1-0.1,0.2-0.1,0.3-0.1c0.5,0.1,1,0.3,1.5,0.6
			c-0.1,0.1-0.1,0.3,0,0.3c0.3,0.2,0.6,0.4,0.9,0.6c1,0.8,2,1.7,2.7,2.8c-0.1-0.1-0.1-0.1-0.1-0.1c0.2,0.2,0.3,0.8,0.7,0.7
			c0.1,0,0.1-0.2,0.1-0.3c-0.7-1-1.5-2-2.5-2.9c2.4,1.8,4,4.5,4.9,7.5C126.5,36.7,123.8,36,121.8,34.4z M121.8,31.6
			c-0.2-0.1-0.5-0.3-0.6-0.1c0-0.2,0-0.3-0.1-0.6C121.4,31.1,121.6,31.4,121.8,31.6z M121.2,37.4c0.5,0.1,0.9-0.4,0.9-0.9
			c0.5,0.3,1,0.6,1.5,0.8c0.1,0.2,0.3,0.3,0.5,0.6l0.8,2.9l-5.7,0.3l-6.8-4.6l-2.8-16.8l2.6-0.2c-0.1,0.8-0.2,1.7-0.1,2.4
			c0,1.3,0.5,2.5,1.3,3.5c-0.6,1-0.6,2.3-0.6,3.4C113,33.3,116.8,37.1,121.2,37.4z M119.4,31.4c0.2,1.3,0.3,2.7,0.6,3.9
			c-2.9-0.8-5.1-3.4-5.3-6.4c0.6,1,1.3,2,2.1,2.8c0.1,0.1,1.7,1.8,1.5,1.1c-0.6-0.8-1.2-1.6-1.5-2.5c0.1,0.1,0.2,0.3,0.3,0.5
			c0.1,0.3,0.6,0.1,0.4-0.2c-0.2-0.4-0.4-0.8-0.6-1.2c-0.1-0.1-0.3-0.1-0.3-0.1c-0.2-0.7-0.3-1.4-0.5-2.1c0.5,0.2,1,0.3,1.6,0.3
			c0.8,0.7,1.3,1.6,1.5,2.6c-0.3-0.8-0.8-1.5-1.3-2.1c-0.2-0.2-0.6,0.1-0.3,0.3c0.5,0.6,0.9,1.2,1.2,1.9c0.2,0.4,0.3,0.8,0.3,1.3
			c0.1,0.2,0.3,0.2,0.4,0.1C119.4,31.5,119.4,31.4,119.4,31.4z M117.4,17.7c-0.3,0-1.3-0.1-0.9,0.4c0.4,0.1,0.8-0.1,1.3,0.1h-0.1
			c0.5,0.1,0.9,0.2,1.3,0.4l0,0c0.5,0.3,1,0.6,1.4,0.8c0.6,0.4,1.1,0.8,1.7,1.2c0.1,0.1,0.2,0,0.3-0.1c0.1-0.1,0-0.2-0.1-0.3
			c-0.7-0.5-1.4-1-2.2-1.5c1.7,1,3.3,2.2,4.5,3.8c-2.4,1.1-4.6,3.3-7.4,3.1c-1.3-0.1-2.3-0.8-3-1.9c-0.1-0.4-0.1-1-0.1-1.4
			c2.3,1.4,5.3,1.3,7.7,0.3c0.1,0,0.1-0.1-0.1-0.1c-2.9,0.6-5.7-0.8-7.7-2.7c0.1-0.1,0.1-0.3,0.1-0.4
			C114.8,18,116.1,17.5,117.4,17.7z M116.6,9.5c-0.6,0.6-1.2,1.3-1.5,2.2c0.4-4.5,5.4-6.3,9.3-6.2c-0.4,3.6-3.1,8.4-6.8,9.2
			c1.7-1,3.2-2.5,4.3-4.3c0.3-0.4,0.6-0.8,0.8-1.3c0.1-0.2,0-0.4-0.2-0.3c-0.1,0-0.1,0.1-0.2,0.2c-0.4,0.8-1,1.6-1.5,2.3l0,0
			c-0.8,0.9-1.6,1.7-2.6,2.4c0.1-0.1,0.1-0.1,0.1-0.1c-0.2,0.1-0.4,0.3-0.6,0.4c0.1-2.4,2-4.5,3.8-5.9c0.2-0.1,0-0.3-0.1-0.3
			c-2.5,1.1-5.4,2.5-5.7,5.7c-0.1-0.3-0.2-0.7-0.3-1.1c0.1-0.1,0.1-0.1,0.1-0.2c0.4-1,1-1.8,1.7-2.5C117.2,9.6,116.9,9.2,116.6,9.5z
			"/>
		<path d="M96.4,41.9h0.8c0.1-7.7,11.4-7.8,11.7-0.1h0.8c0-3.7-3.1-6.6-6.8-6.6C99.4,35.1,96.2,38.3,96.4,41.9z"/>
		<polygon points="102.5,26.5 105.7,19.4 95,20.5 98.1,27.1 		"/>
		<polygon points="103.4,26.5 109,25.9 107.7,19.7 106.4,19.8 		"/>
		<polygon points="97.8,28 91.6,35.2 102.3,27.3 		"/>
		<path d="M93.5,36.2l-1.4-0.1l2,5l0.8-0.8C96.4,38.9,95.6,36.4,93.5,36.2z"/>
		<path d="M109.4,29.2c-0.1,0-7.7,0.3-7.7,0.3c-0.1,0-0.3,0.1-0.3,0.3c0,0.1,0.1,0.3,0.3,0.3c0.3,0,7.6-0.3,7.8-0.3
			C109.8,29.7,109.8,29.2,109.4,29.2z"/>
		<path d="M109.7,30.5c-0.1,0-10,0.6-10.1,0.6s-0.3,0.1-0.3,0.3c0,0.1,0.1,0.3,0.3,0.3c0.2,0,10-0.6,10.2-0.6
			C110.1,31,110,30.5,109.7,30.5z"/>
		<path d="M110,31.8c-0.1,0-12.4,0.6-12.5,0.6s-0.3,0.1-0.3,0.3c0,0.1,0.1,0.3,0.3,0.3c0.6,0,12.4-0.6,12.6-0.6
			C110.3,32.3,110.3,31.8,110,31.8z"/>
		<path d="M110.2,33.2c-0.1,0-15,0.8-15.1,0.8v0.6c0.7-0.1,15-0.8,15.2-0.8C110.6,33.7,110.5,33.2,110.2,33.2z"/>
		<path d="M114,38.8c-1.5,0-4.3,0-4.3,0c-0.1,0-0.3,0.1-0.3,0.3c0,0.1,0.1,0.3,0.3,0.3c0.1,0,3.9,0,4.4,0
			C114.4,39.3,114.3,38.9,114,38.8z"/>
		<path d="M115.1,39.8c-1.7,0.1-5.3-0.3-5.1,0.2c0,0.1,0.1,0.3,0.3,0.3c0.1-0.1,4.4,0,4.9,0C115.4,40.2,115.4,39.8,115.1,39.8z"/>
		<path d="M116.2,40.6c-1.9,0.1-5.7-0.3-5.5,0.2c0,0.1,0.1,0.3,0.3,0.3c0.1,0,4.7,0.1,5.3,0.1C116.5,41.1,116.5,40.6,116.2,40.6z"/>
		<path d="M117.7,41.5c0,0-6.1-0.1-6.2-0.1s-0.3,0.1-0.3,0.3c0,0.1,0.1,0.3,0.3,0.3c0.1,0,5.7,0.1,6.3,0.1
			C118,42,117.9,41.5,117.7,41.5z"/>
		<path d="M133,9L133,9L133,9L133,9z"/>
		<path d="M133,9L133,9L133,9z"/>
		<path d="M130.4,10c-0.4,0.3-0.8,0.7-1.3,1c0.1-0.1,0.1-0.1,0.1-0.1c-1,0.6-2,1.2-3,1.7c-0.1,0-0.1,0.2-0.1,0.3
			c0.1,0.3,1-0.3,1.3-0.4c1.2-0.6,2.3-1.4,3.3-2.3C130.9,10,130.6,9.7,130.4,10z"/>
		<path d="M129,9.8c-0.2,0.1-0.5,0.4-0.7,0.6c0.1-0.1,0.1-0.1,0.1-0.1c-0.3,0.3-0.8,0.5-1.3,0.7c-0.1,0-0.1,0.2-0.1,0.3
			c0.2,0.3,0.6-0.1,0.8-0.1c0.6-0.2,1-0.6,1.4-1C129.4,10,129.3,9.8,129,9.8z"/>
		<path d="M128.8,7.1c-1,0.3-2.1,0.6-2.9,1.3c-0.1,0.1-0.1,0.3,0,0.3c0.3,0.2,0.4-0.1,0.6-0.2c0.7-0.5,1.6-0.8,2.4-1
			C129.2,7.6,129.2,7.1,128.8,7.1z"/>
		<path d="M120.7,11.3L120.7,11.3L120.7,11.3z"/>
		<path d="M120.6,10.5c-0.3-0.3-0.6,0.3-0.8,0.4c-0.6,0.6-1.1,1-1.7,1.5c-0.1,0.1-0.1,0.4,0.1,0.4c0.3-0.1,0.5-0.3,0.7-0.5
			C119.2,12.1,121,10.8,120.6,10.5z"/>
		<path d="M116.4,10.5L116.4,10.5L116.4,10.5z"/>
		<path d="M119.1,18.6L119.1,18.6L119.1,18.6z"/>
		<path d="M119.3,19.6L119.3,19.6C119.3,19.7,119.3,19.7,119.3,19.6z"/>
		<path d="M120.4,19.7c-0.2-0.1-0.4-0.2-0.6-0.3c-0.8-0.4-1.7-0.7-2.6-0.8c-0.4,0-0.2,0.8,0.1,0.5c1,0.2,2,0.6,2.9,1.1
			C120.4,20.3,120.7,19.9,120.4,19.7z"/>
		<path d="M115.5,19c-0.1-0.1-0.1-0.1-0.3-0.1c-0.4,0.2,0.5,1,0.7,1.3c0.6,0.6,1.3,0.9,2,1.2c0.8,0.3,1.6,0.5,2.4,0.6
			c0.1,0,0.2-0.1,0.2-0.2c0.1-0.1-0.1-0.2-0.2-0.2l0,0c-0.9-0.1-1.9-0.3-2.7-0.8l0,0c-0.4-0.2-0.8-0.4-1.2-0.7
			C116.1,19.9,115.7,19.5,115.5,19z"/>
		<path d="M117.6,20.8L117.6,20.8L117.6,20.8z"/>
		<path d="M117,19.4c-0.1-0.1-0.2,0-0.3,0.1c-0.1,0.3,0.3,0.3,0.6,0.4c0.5,0.2,1,0.3,1.5,0.6c0.1,0.1,0.2,0,0.3-0.1
			c0.1-0.3-0.3-0.3-0.6-0.4C118,19.8,117.5,19.6,117,19.4z"/>
		<path d="M118.2,23.6c-0.3,0-0.7,0-1-0.1l0,0c-0.6-0.1-1.1-0.3-1.7-0.5c0.1,0,0,0,0,0c-0.3-0.1-0.6-0.3-0.8-0.4
			c-0.2-0.2-0.4,0.2-0.2,0.3c1.1,0.6,2.4,1,3.6,1C118.5,24.1,118.5,23.6,118.2,23.6z"/>
		<path d="M114.8,24c0.1,0.1,0.3,0.2,0.5,0.3c0.6,0.3,1.1,0.6,1.7,0.8c0.1,0.1,0.2,0,0.3-0.1c0.1-0.3-0.4-0.3-0.6-0.5
			c-0.6-0.2-1.1-0.5-1.7-0.8C114.7,23.5,114.5,24,114.8,24z"/>
		<path d="M129,18.6c0.1-0.1,0-0.3-0.1-0.3c-0.4-0.1-0.8-0.2-1.2-0.3c-1.4-0.3-2.9-0.4-4.3,0c-0.1,0.1-0.1,0.1-0.1,0.3
			c0,0.1,0.1,0.2,0.3,0.1c0.3-0.1,0.7-0.1,1.1-0.2c0.8-0.1,1.7,0,2.4,0.1l0,0c0.6,0.1,1.1,0.3,1.7,0.4
			C128.8,18.8,128.9,18.7,129,18.6z"/>
		<path d="M123.2,17.2c-0.3,0.1-0.2,0.5,0.1,0.4c0.5-0.1,1-0.2,1.5-0.2s1.1,0.1,1.7,0.1c0.1,0,0.1,0,0.1-0.1
			C127.3,16.6,123.5,17,123.2,17.2z"/>
		<path d="M129.6,20.7c-0.4-0.1-3.5-0.6-3.4,0.1c0.1,0.3,0.5,0.1,0.8,0.1c0.6-0.1,1.3-0.1,1.9,0.1h-0.1c0.3,0,0.5,0.1,0.7,0.1
			C129.7,21.2,129.9,20.8,129.6,20.7z"/>
		<path d="M126.8,21.8c0.4,0,0.9,0,1.3,0.1H128c0.1,0,0.3,0,0.4,0.1c0.3,0.1,0.4-0.3,0.1-0.4c-0.7-0.1-1.4-0.3-2-0.1
			C126.5,21.6,126.5,21.9,126.8,21.8z"/>
		<path d="M131.3,23.1c0-0.1-0.1,0-0.1,0c-0.6,0.2-1.1,0.4-1.7,0.6l0,0h-0.1l0,0c-1,0.3-2.1,0.8-3.2,1c-0.3,0-0.5,0-0.8,0
			c-0.1,0-0.2,0.1-0.2,0.2c0.3,1,5.3-1.2,6.1-1.5C131.5,23.3,131.5,23.1,131.3,23.1z"/>
		<path d="M126.5,23.9c-0.1,0-0.1,0.2-0.1,0.3c0.2,0.3,0.6-0.1,0.8-0.1c0.5-0.1,1-0.3,1.4-0.7c0.2-0.2-0.1-0.6-0.3-0.3
			c-0.1,0.1-0.1,0.1-0.1,0.1l0,0C127.8,23.5,127.1,23.6,126.5,23.9z"/>
		<path d="M130,22.5c0-0.3-0.5-0.2-0.8-0.3c-0.7,0-1.3-0.1-2-0.1c-0.1,0-0.2,0.1-0.2,0.2c0,0.4,0.5,0.2,0.8,0.3c0.7,0,1.3,0.1,2,0.1
			C129.9,22.8,130,22.7,130,22.5z"/>
		<path d="M132.7,30L132.7,30L132.7,30z"/>
		<path d="M132.7,30L132.7,30L132.7,30z"/>
		<path d="M136.1,31.5c0-0.2-0.2-0.2-0.3-0.3c-0.8-0.3-1.6-0.6-2.4-0.9c-2-0.8-3.7-2.1-5.4-3.2c-0.1-0.1-0.2,0-0.3,0.1
			c-0.1,0.2,0.1,0.3,0.3,0.4c0.5,0.3,1,0.7,1.5,1c1.9,1.3,4,2.3,6.2,3c0.1,0.1,0.2,0.1,0.3,0.1C136,31.6,136.1,31.6,136.1,31.5z"/>
		<path d="M132.7,30L132.7,30L132.7,30z"/>
		<path d="M133,28.8c-0.1-0.1-0.3-0.1-0.6-0.3c-0.7-0.3-1.3-0.6-1.9-1c-0.5-0.3-0.9-0.8-1.5-0.8c-0.3-0.1-0.3,0.4-0.1,0.4l0,0
			c0.1,0,0.1,0.1,0.2,0.1l0,0c1.1,0.7,2.2,1.5,3.5,2C132.9,29.2,133.2,28.9,133,28.8z M129.1,27L129.1,27
			C129.1,27,129.2,27,129.1,27z M132.3,28.4L132.3,28.4L132.3,28.4z"/>
		<path d="M129.3,27.1L129.3,27.1L129.3,27.1z"/>
		<path d="M130.7,26.2c-0.2-0.1-0.3,0.2-0.3,0.3c0.1,0.1,0.3,0.2,0.4,0.3l0,0c0.5,0.3,1.1,0.5,1.6,0.8l0,0c0.1,0.1,0.2,0.2,0.3,0.1
			C133.5,27.2,131,26.5,130.7,26.2z M132.4,27.6L132.4,27.6L132.4,27.6z"/>
		<path d="M132.5,27.7L132.5,27.7L132.5,27.7L132.5,27.7z"/>
		<path d="M123.5,28.7C123.5,28.8,123.5,28.8,123.5,28.7C123.5,28.8,123.5,28.8,123.5,28.7z"/>
		<path d="M123.5,28.7L123.5,28.7L123.5,28.7z"/>
		<path d="M122.8,29.3L122.8,29.3L122.8,29.3z"/>
		<path d="M124.4,30.2c-0.2-0.2-2-2.2-2-1.3c0.1,0.2,0.4,0.3,0.6,0.5c0.6,0.4,1,1,1.5,1.5c0.1,0.1,0.3,0.1,0.3,0
			C125,30.7,124.5,30.4,124.4,30.2z"/>
		<path d="M122.8,29.2C122.8,29.3,122.8,29.2,122.8,29.2S122.8,29.3,122.8,29.2z"/>
		<path d="M122.5,30c0.4,0.4,0.8,0.8,1.3,1.3c0.1,0.1,0.3,0.1,0.3,0c0.1-0.1,0.1-0.3,0-0.3c-0.4-0.4-0.8-0.8-1.3-1.3
			C122.6,29.5,122.3,29.8,122.5,30z"/>
		<path d="M118.1,30.2c-0.1-0.4-0.3-0.8-0.6-1.3c0-0.1-0.1-0.1-0.3-0.1c-0.1,0-0.1,0.1-0.1,0.3c0.1,0.4,0.3,0.8,0.6,1.3
			c0,0.1,0.2,0.1,0.3,0.1C118.1,30.4,118.1,30.3,118.1,30.2z"/>
		<path d="M127.1,36.1c0.1,0,0.2-0.1,0.2-0.2c0-0.3-0.8-0.1-1-0.3h0.1c-0.5-0.1-1-0.2-1.4-0.4l0,0c-0.6-0.3-1.2-0.6-1.7-1
			c-0.3-0.1-0.8-0.6-1-0.9c-0.2-0.2-0.6,0.1-0.3,0.3C123.2,35,125,36.2,127.1,36.1z"/>
		<path d="M124.4,33.9c-0.1-0.1-0.3-0.1-0.5-0.2c-0.2-0.1-0.5-0.3-0.6-0.3c-0.2-0.1-0.4-0.3-0.6-0.5s-0.6,0.1-0.3,0.3
			c0.5,0.4,1.1,1.1,1.8,1C124.4,34.1,124.4,34,124.4,33.9z"/>
		<path d="M143.8,24.3L143.8,24.3c-0.5,0.6-1.1,1.2-1.7,1.7c0.1-0.1,0.1-0.1,0.1-0.1c-0.7,0.5-1.5,0.9-2.2,1.2
			c-0.3,0.1-0.6,0.3-1,0.3c-0.1,0.1-0.1,0.1-0.1,0.3c0.1,0.6,2.7-0.8,2.9-1c1.2-0.7,2.2-1.7,3-2.8c0.1-0.1,0-0.2-0.1-0.3
			c-0.3-0.1-0.4,0.3-0.6,0.5C144,24.2,144,24.2,143.8,24.3z"/>
		<path d="M141.5,24.9c0,0-0.1,0-0.1,0.1c-0.6,0.6-1.4,0.9-2.2,1.3c-0.3,0.1-0.6,0.1-0.9,0.2c-0.2,0.1-0.2,0.3-0.1,0.4
			c1,0,2-0.7,2.9-1.2C141.3,25.5,142.1,25.1,141.5,24.9z"/>
		<path d="M139.4,24.8c0.2-0.2-0.1-0.6-0.3-0.3c-0.8,0.6-2,0.5-3,0.3h0.1c-0.2,0-0.5-0.1-0.7-0.1c-0.1,0-0.2,0.1-0.2,0.2
			c0,0.3,0.4,0.2,0.6,0.3l0,0c1,0.2,2,0.2,3-0.1C139.1,25.1,139.3,24.9,139.4,24.8z"/>
		<path d="M139,22.8c-0.1-0.1-0.3,0-0.4,0c-0.7,0.1-1.4,0-2.1,0.2c-0.2,0.1-0.2,0.3-0.1,0.4c0.2,0.1,0.5-0.1,0.7-0.1H137
			c0.6,0,1.2,0,1.8-0.1C139.1,23.3,139.1,23.1,139,22.8z"/>
		<path d="M141.6,18.7c-0.7-0.5-1.4-1-2.2-1.3c-0.3-0.1-0.4,0.3,0.1,0.5l0,0c0.7,0.3,1.3,0.9,2,1.3c0.1,0.1,0.2,0.2,0.3,0.1
			C142.2,19.1,141.8,18.8,141.6,18.7z"/>
		<path d="M138.7,18.2c-0.1-0.1-0.5-0.3-0.6,0c-0.1,0.1,0.1,0.3,0.3,0.3c0.2,0.1,0.4,0.2,0.6,0.3c0.3,0.1,1,0.5,1.5,0.8
			c0.2,0.4,0.9-0.1,0-0.5C139.9,18.7,139.2,18.4,138.7,18.2z M140.8,19.3L140.8,19.3L140.8,19.3L140.8,19.3z M140.5,19.6L140.5,19.6
			L140.5,19.6z M138.2,18.4L138.2,18.4L138.2,18.4z M138.4,18.3L138.4,18.3L138.4,18.3z M138.5,18.2L138.5,18.2L138.5,18.2
			L138.5,18.2z"/>
		<path d="M136.6,18.9c-0.1-0.1-0.2,0-0.3,0.1s0,0.2,0.1,0.3c0.7,0.3,1.4,0.6,2.1,0.8c0.3,0,2,0.4,1.6-0.3l-0.1-0.1
			c-0.4,0-0.8,0-1-0.1l0,0C138.1,19.5,137.3,19.2,136.6,18.9z"/>
		<path d="M142.4,11.5c0.2-0.2-0.1-0.6-0.3-0.3c-1,1-2.2,2-3.4,2.9c0.1-0.1,0.1-0.1,0.1-0.1c-1.3,0.9-2.7,1.7-4.2,2.2
			c-0.4,0.2-0.9,0.3-1.4,0.4c-0.1,0.1-0.1,0.1-0.1,0.3c0.1,0.2,0.3,0.1,0.6,0.1c2.1-0.5,4-1.5,5.7-2.9
			C140.4,13.3,141.5,12.4,142.4,11.5z"/>
		<path d="M137.5,13.5c-0.2,0.1-0.3,0.2-0.6,0.3c-1,0.6-2.2,1.1-3.3,1.4c-0.2,0.1-0.1,0.5,0.1,0.4c1.4-0.3,2.7-1,4-1.7
			C137.9,13.8,137.7,13.4,137.5,13.5z"/>
		<path d="M136.7,12.9c-0.3-0.1-1.5,0.6-1.9,0.7c-0.3,0.1-0.1,0.6,0.2,0.4c0.5-0.3,1-0.5,1.6-0.7C136.9,13.2,136.9,13,136.7,12.9z"
			/>
		<path d="M136.5,8.8c-0.4,0.1-0.1,0.8,0.2,0.4c0.8-0.3,1.5-0.4,2.4-0.6c0.3-0.1,0.6-0.1,1,0c0.1,0,0.1,0,0.1-0.1
			C140.8,7.6,136.8,8.6,136.5,8.8z"/>
		<path d="M139.1,7.1c-0.1-0.1-0.4,0-0.6,0c-0.3,0.1-1.7,0.2-1.6,0.6c0,0.1,0.1,0.2,0.3,0.1c0.6-0.2,1-0.3,1.6-0.3
			c0.1,0,0.3,0,0.4-0.1C139.2,7.3,139.2,7.1,139.1,7.1z"/>
		<path d="M136.2,9.9c0,0.1,0.1,0.1,0.3,0.1c0.3-0.1,0.7-0.1,1-0.2c0.3-0.1,0.1-0.5-0.1-0.4C137.1,9.4,136,9.5,136.2,9.9z"/>
		<path d="M147.9,12.1c-0.6-0.3-1.1-0.5-1.7-0.6c-0.3-0.1-0.4,0.3-0.1,0.4c0.4,0.1,1.1,0.3,1.4,0.5c0.8,0.3,1.5,0.8,2.2,1.4
			c0,0.1,0.2,0.2,0.3,0.2C151,13.8,148.2,12.2,147.9,12.1z"/>
		<path d="M149.3,13.5L149.3,13.5L149.3,13.5z"/>
		<path d="M149.3,13.5L149.3,13.5L149.3,13.5z"/>
		<path d="M145.9,12.7c0.4-0.1,0.8,0.1,1.1,0.3c0.1,0,0.4,0.2,0.6,0.3c0.2,0.2,0.5-0.2,0.2-0.3c-0.6-0.3-1.1-0.6-1.7-0.7
			C145.7,12.2,145.5,12.5,145.9,12.7z M146.1,12.7C146,12.7,146.1,12.7,146.1,12.7S146,12.7,146.1,12.7z"/>
		<path d="M145.5,13.2c-0.3-0.1-0.3,0.4,0,0.4c0.1,0,0.3,0.1,0.5,0.1h-0.1c0.3,0,1,0.5,1-0.1C146.8,13.3,145.9,13.2,145.5,13.2z"/>
		<path d="M146.6,13.8L146.6,13.8L146.6,13.8z"/>
		<path d="M150,17.7c0.2-0.3-1-0.8-1.3-0.9c-0.7-0.3-1.5-0.6-2.2-0.6c-0.8-0.1-1.5-0.1-2.3,0.1c-0.1,0.1-0.1,0.1-0.1,0.3
			c0.1,0.3,0.6,0.1,0.8,0.1h-0.1c0.7-0.1,1.3-0.1,2,0.1h-0.1c0.6,0.1,1.3,0.3,1.9,0.6l0,0c0.3,0.1,0.6,0.3,1,0.6
			C149.8,17.9,150,17.9,150,17.7z"/>
		<path d="M148.7,17.3L148.7,17.3L148.7,17.3z"/>
		<path d="M145,17.7c0.1,0.3,0.5,0.1,0.7,0.1h-0.1c0.5-0.1,1,0,1.5,0.1c0.1,0,0.3-0.2,0.2-0.3c-0.3-0.3-1.6-0.2-2.1-0.1
			C145.1,17.3,145,17.5,145,17.7z M146.9,17.7L146.9,17.7L146.9,17.7z"/>
		<path d="M146.8,19.1c0.2,0.1,0.6-0.1,0.8-0.1c0.3-0.1,0.8,0.1,0.8-0.2c0-0.5-1.3-0.2-1.6-0.1C146.6,18.7,146.6,19,146.8,19.1z"/>
		<path d="M142.3,29.8c0.5,0.1,0.9,0.3,1.4,0.3c1.7,0.3,3.6,0.4,5-0.6c0.3-0.1,0-0.6-0.2-0.4c-1.3,0.8-2.8,0.8-4.3,0.6l0,0
			c-0.6-0.1-1.2-0.3-1.8-0.4C142.2,29.3,142,29.7,142.3,29.8z"/>
		<path d="M144.7,29L144.7,29L144.7,29z"/>
		<path d="M144.7,29L144.7,29c-0.2,0-0.7-0.3-0.8,0c-0.1,0.1,0,0.3,0.1,0.3c0.7,0.1,1.4,0.2,2.1,0.3c0.1,0,0.2-0.1,0.2-0.2
			s-0.1-0.2-0.2-0.2C145.6,29.1,145.1,29.1,144.7,29z"/>
		<path d="M146.4,28c-0.1,0.1-0.3,0-0.6,0h0.1c-0.1-0.1-0.3-0.1-0.6-0.2l0,0c-0.1,0-0.2-0.1-0.3-0.1c-0.2-0.2-0.5,0.2-0.2,0.3
			c0.5,0.3,1.2,0.6,1.7,0.3C146.8,28.2,146.6,28,146.4,28z"/>
		<path d="M145.4,27.8L145.4,27.8C145.4,27.8,145.3,27.8,145.4,27.8z"/>
		<path d="M146.7,27L146.7,27L146.7,27z"/>
		<path d="M146.7,27L146.7,27L146.7,27z"/>
		<path d="M148.1,32.4c0-0.1-0.1,0-0.1,0c-0.4,0.3-0.8,0.5-1.3,0.7c-0.8,0.3-1.7,0.5-2.7,0.4c-0.1,0-0.2,0.1-0.2,0.2
			c0,0.4,0.9,0.2,1.2,0.2c1.2-0.1,2.3-0.4,3.3-1.1C148.4,32.8,148.4,32.5,148.1,32.4z"/>
		<path d="M145.6,32.5c-0.3,0-0.6,0.2-1,0.2c-0.2,0.1-0.6-0.1-0.7,0.2c0,0.6,1.5,0.1,1.7,0C145.9,32.9,145.9,32.6,145.6,32.5z"/>
		<path d="M133.2,33.7c0.7,0.1,1.4,0.1,2.1,0.1c0.1,0,0.2-0.1,0.2-0.2c0-0.4-0.6-0.2-0.8-0.3c-0.8-0.1-1.5-0.1-2.3-0.2h0.1
			c-0.6-0.1-1.3-0.2-1.8-0.5c-0.2-0.1-0.5-0.4-0.7-0.1C129.5,33.1,132.7,33.7,133.2,33.7z"/>
		<path d="M130.6,34c0.6,0.3,1.4,0.6,2.2,0.4c0.2-0.1,0.2-0.3,0.1-0.4c-0.3-0.1-0.8,0-1.1-0.1h0.1c-0.3,0-0.6-0.1-0.8-0.2
			c-0.1,0-0.1-0.1-0.2-0.1C130.6,33.5,130.4,33.9,130.6,34z"/>
		<path d="M131.1,33.7L131.1,33.7L131.1,33.7z"/>
		<path d="M133.2,39.2c-0.2,0-0.5,0-0.8-0.1h0.1c-0.8-0.2-1.5-0.5-2.2-1l0,0l0,0c-0.1-0.1-0.5-0.3-0.6,0c0.1,0.3,0.6,0.5,0.8,0.7
			c0.8,0.5,1.8,0.8,2.8,0.8C133.6,39.7,133.6,39.2,133.2,39.2z"/>
		<path d="M129.5,38.6c-0.1-0.1-0.3-0.5-0.6-0.3c-0.1,0.1-0.1,0.3,0,0.3c0.3,0.1,0.8,0.8,1,0.5C130.1,38.9,129.7,38.8,129.5,38.6z"
			/>
		<path d="M134.1,37.4L134.1,37.4L134.1,37.4z"/>
		<path d="M133.5,37.2C133.5,37.1,133.5,37.2,133.5,37.2S133.5,37.1,133.5,37.2z"/>
		<path d="M133.5,37.2L133.5,37.2L133.5,37.2z"/>
		<path d="M135.9,37.2c-0.6,0.1-1.3,0.2-1.9,0.1l0,0c-0.2,0-0.3-0.1-0.6-0.1c-0.3-0.2-0.6,0.1-0.3,0.3c0.8,0.5,1.9,0.3,2.9,0.2
			C136.3,37.6,136.2,37.2,135.9,37.2z"/>
		<path d="M153,21.4L153,21.4L153,21.4z"/>
		<path d="M153,21.4L153,21.4L153,21.4z"/>
		<path d="M151.5,21.9c0.1-0.4-1.4-0.2-1.7-0.2c-0.1,0-0.1,0.1-0.1,0.3c0.1,0.2,0.3,0.1,0.5,0.1h-0.1c0.3-0.1,0.8-0.1,1.2,0
			C151.4,22.1,151.6,21.9,151.5,21.9z"/>
		<path d="M155.3,25.5L155.3,25.5L155.3,25.5z"/>
		<path d="M154.4,24.7C154.4,24.6,154.4,24.7,154.4,24.7L154.4,24.7C154.4,24.6,154.4,24.6,154.4,24.7z"/>
	</g>
</g>
<g>
	<path class="st1" d="M27.8,13.6h0.4c1.2,0,1.9,0.6,1.9,1.7l-1.4,12.8h0.1c1.9,0,2.9-0.2,2.9-0.7c0.1-0.4,0.1-0.9,0.2-1.6
		c0-0.2-0.1-0.3-0.1-0.5V25c0-0.4,0.6-0.7,1.9-0.7c0.3,0,0.4,0.4,0.4,1.1l0.2,9.4c0,0.6-0.3,0.9-0.8,0.9c-2-0.3-3.7-0.5-5-0.5
		c-1.6,0-3.2,0.2-5,0.6c-0.5,0-0.8-0.5-0.8-1.4v-2.9c0-0.1,0-0.2,0.1-0.2c0-0.1-0.1-0.2-0.1-0.2v-0.2c0,0,0-0.1,0.1-0.1
		c0,0,0-0.1-0.1-0.1c0.1-1.5,0.1-3.8,0.1-6.8v-2c-0.2-4.3-0.3-6.7-0.3-7.3c0.2-0.4,0.5-0.7,0.9-0.7h0.3C24,13.9,25.4,13.8,27.8,13.6
		z"/>
	<path class="st1" d="M45,13.2h0.5c2,0.1,3,0.6,3.1,1.2c0,0.3,0.3,3.1,0.8,8.2c0,0.7,0.1,1.4,0.1,1.9c0,5.3-2.1,8.9-6.3,10.8
		c-0.8,0.3-2.2,0.7-4.3,1.1c-0.9,0-1.4-0.5-1.5-1.6v-0.1c0.1-1.2,0.1-1.8,0.1-1.9v-0.2c0-0.6-0.4-2.6-1.1-6.1c-0.2-1-0.3-2-0.3-3.1
		c0-5,2.2-8.2,6.7-9.8C43.6,13.3,44.3,13.2,45,13.2z M41.6,17.8c-0.4,1-0.7,2.5-0.7,4.4c0,3,0.9,6.3,2.6,9.9v0.1h0.1
		c0.7-1.5,1.1-3.1,1.1-4.6c0-3.2-0.9-6.3-2.8-9.2C41.7,18.1,41.6,17.9,41.6,17.8L41.6,17.8z"/>
	<path class="st1" d="M56.7,13.6H57c1.2,0,1.9,0.6,1.9,1.7l-1.4,12.8h0.1c1.9,0,2.9-0.2,2.9-0.7c0.1-0.4,0.1-0.9,0.2-1.6
		c0-0.2-0.1-0.3-0.1-0.5V25c0-0.4,0.6-0.7,1.9-0.7c0.3,0,0.4,0.4,0.4,1.1l0.2,9.4c0,0.6-0.3,0.9-0.8,0.9c-2-0.3-3.7-0.5-5-0.5
		c-1.6,0-3.2,0.2-5,0.6c-0.5,0-0.8-0.5-0.8-1.4v-2.9c0-0.1,0-0.2,0.1-0.2c0-0.1-0.1-0.2-0.1-0.2v-0.2c0,0,0-0.1,0.1-0.1
		c0,0,0-0.1-0.1-0.1c0.1-1.5,0.1-3.8,0.1-6.8v-2c-0.2-4.3-0.3-6.7-0.3-7.3c0.2-0.4,0.5-0.7,0.9-0.7h0.3
		C52.9,13.9,54.3,13.8,56.7,13.6z"/>
	<path class="st1" d="M77,14.1c0.3,0,0.6,0.2,0.8,0.7l-0.1,0.3v0.7c1,3.6,1.4,6.1,1.4,7.4c0.1,0.6,0.3,2.6,0.7,5.9
		c0.2,0.8,0.4,2.6,0.7,5.5c-0.1,0.5-0.4,0.8-0.7,0.8c-0.9-0.2-1.6-0.3-2.3-0.3l-3.1,0.4c-0.4-0.1-0.6-0.4-0.6-0.8
		c0-1.1-0.3-2.2-1-3.2c-0.5,0-0.7,0.4-0.7,1.2c-0.4,1.7-0.8,2.7-1.4,2.7c-0.1,0-0.2,0-0.2,0.1c0,0-0.1,0-0.2-0.1
		c-0.2,0-1.7,0.1-4.4,0.2c-0.4,0-0.7-0.2-0.9-0.6c0-0.7,0.1-1.2,0.1-1.5v-2.1c0-3.3,0.6-7.6,1.8-12.9l0.2-1.3
		c-0.1-1-0.2-1.7-0.2-2.1c0.1-0.6,0.4-0.8,0.8-0.8c1.3,0.3,2.5,0.4,3.5,0.4H73C74.4,14.7,75.8,14.5,77,14.1z M73,17.9
		c-0.9,4.4-1.3,7.3-1.3,8.7c1-1.1,1.9-1.9,2.7-2.4C74.3,23.9,73.9,21.8,73,17.9L73,17.9z"/>
	<path class="st1" d="M179.3,13.7c0.4,0,0.6,0.3,0.7,0.9c0,4.1,0.3,7.7,0.9,10.9v0.2c0,0.9-2.6,2.1-7.8,3.7
		c-0.2,0.2-0.2,0.4-0.2,0.6v0.4c0,1,0.2,2.5,0.5,4.5V35c0,0.4-0.9,0.6-2.8,0.6h-1.9c-0.5,0-0.7-0.3-0.7-0.8
		c-0.1-2.8-0.2-4.6-0.3-5.2h0.1l-0.1-0.1c-0.4-8.5-0.5-13.1-0.5-13.8c0.1-0.8,0.5-1.1,1.1-1.1l3.2,0.2
		C173.4,14.7,176,14.4,179.3,13.7L179.3,13.7z M173.5,18.4l-0.3,7.6c1.6-0.8,2.3-1.3,2.3-1.6C175.3,23.5,174.7,21.5,173.5,18.4
		L173.5,18.4z"/>
	<path class="st1" d="M194.7,14.4c0.3,0.2,0.5,0.4,0.5,0.5c0,2.7-0.1,4.8-0.1,6.4v2.3c0,0.9-0.2,1.3-0.7,1.3c0,0-0.6,0.2-1.8,0.6
		c-0.6,0-0.9-0.8-0.9-2.4c0-0.2-0.8-0.4-2.5-0.5c-0.1,0.4-0.2,0.8-0.2,1.2v1c0,0.2,0.5,0.3,1.5,0.4c0.4,0.2,0.5,0.5,0.5,0.9
		c-0.1,0.5-0.9,0.9-2.2,1c-0.3,0.3-0.4,0.9-0.4,1.8c0,0.2,0.4,0.4,1.3,0.4c0.9,0,1.6,0,2.1,0.1c0.1-1.6,0.5-2.4,1.1-2.4
		c0,0,0.1,0,0.2-0.1c1.4,0.2,2.1,0.7,2.1,1.6c-0.1,1.1-0.1,1.8-0.1,2c0,0.4,0,1.6,0.1,3.5c-0.1,0.8-0.4,1.2-1,1.2h-0.4
		c-0.5,0-1.3,0-2.4,0.1c-2.4,0-3.9-0.1-4.4-0.1c-1.6,0.2-2.5,0.2-2.8,0.2h-0.5c-0.7-0.1-1-0.4-1-0.9c0.2-1.3,0.2-2.2,0.2-2.9v-0.3
		c0-0.7-0.1-3.9-0.2-9.5c0.1-4.6,0.3-6.9,0.7-6.9c0-0.3,1.8-0.4,5.3-0.4C189.2,14.7,191.3,14.6,194.7,14.4z"/>
	<path class="st1" d="M200.9,13.8c3,0.2,4.8,0.4,5.4,0.7c0.2,0,0.3,0.1,0.4,0.4c-2.2,5.1-3.3,7.9-3.3,8.4c0.2,0.1,0.9,0.4,2.2,0.9
		c1.3,0.6,2,1.1,2,1.5v0.2c0,0.2-1.1,2.3-3.3,6.3c-1.6,3.1-2.6,4.7-3,4.7c0,0.1-0.2,0.1-0.5,0.1c-3-0.4-4.5-0.9-4.5-1.5l0,0
		c0-0.2,0.7-1.5,2.1-3.9c1.4-2.4,2.1-3.7,2.1-4c-2.4-0.9-3.6-1.6-3.6-2.2v-0.1c0-0.4,0.7-2.4,2-6.2c0.8-2.8,1.2-4.5,1.5-5
		L200.9,13.8z"/>
	<path class="st1" d="M217.1,13h0.7c2.7,0.2,4.1,0.6,4.1,1.1l0.1,0.4v0.2c-0.2,3.6-0.5,5.5-0.8,5.9c-0.5,0.9-1.5,2.2-3.1,4
		c-0.1,0.1-0.2,0.1-0.4,0.1h-0.1c-0.2-0.1-0.3-0.3-0.3-0.5v-0.3c0.1-1.6,0.1-2.4,0.1-2.5c0-0.4-0.5-0.6-1.4-0.6h-0.7
		c0,2.1,0.3,4.4,0.8,7c0.2,0.7,0.5,1.3,0.9,1.8h0.1c1.2-2.5,2.6-5,4.3-7.7h0.1c0.3,0,0.4,0.1,0.4,0.4c0,0,0,0.3-0.1,0.8
		c0,0.5,0.1,1.8,0.2,4v1c0,2.4-1.5,4.6-4.4,6.8c-1,0.7-1.8,1-2.4,1.1c-1.4,0-2.9-1.1-4.6-3.2c-1.4-2.1-2.2-4.8-2.2-8.1
		c0-5,1.7-8.6,5.1-10.7C214.9,13.3,216,13,217.1,13z"/>
	<path class="st1" d="M235.9,14.1c0.3,0,0.6,0.2,0.8,0.7l-0.1,0.3v0.7c1,3.6,1.4,6.1,1.4,7.4c0.1,0.6,0.3,2.6,0.7,5.9
		c0.2,0.8,0.4,2.6,0.7,5.5c-0.1,0.5-0.4,0.8-0.7,0.8c-0.9-0.2-1.6-0.3-2.3-0.3l-3.1,0.4c-0.4-0.1-0.6-0.4-0.6-0.8
		c0-1.1-0.3-2.2-1-3.2c-0.5,0-0.7,0.4-0.7,1.2c-0.4,1.8-0.9,2.8-1.4,2.8c-0.1,0-0.2,0-0.2,0.1c0,0-0.1,0-0.2-0.1
		c-0.2,0-1.7,0.1-4.4,0.2c-0.4,0-0.7-0.2-0.9-0.6c0-0.7,0.1-1.2,0.1-1.5v-2.2c0-3.3,0.6-7.6,1.8-12.9l0.2-1.3
		c-0.1-1-0.2-1.7-0.2-2.1c0.1-0.6,0.4-0.8,0.8-0.8c1.3,0.3,2.5,0.4,3.5,0.4h1.8C233.3,14.7,234.7,14.5,235.9,14.1z M231.9,17.9
		c-0.9,4.4-1.3,7.3-1.3,8.7c1-1.1,1.9-1.9,2.7-2.4C233.3,23.9,232.8,21.8,231.9,17.9L231.9,17.9z"/>
</g>
</svg>
